<svg xmlns="http://www.w3.org/2000/svg" xml:space="preserve" version="1.1" style="shape-rendering:geometricPrecision; text-rendering:geometricPrecision; image-rendering:optimizeQuality; fill-rule:evenodd; clip-rule:evenodd" xmlns:xlink="http://www.w3.org/1999/xlink" xmlns:xodm="http://www.corel.com/coreldraw/odm/2003" viewBox="490 103.55 300.02 292.9">
 <defs>
  <style type="text/css">
   <![CDATA[
    .str0 {stroke:#332C2B;stroke-width:2.08;stroke-miterlimit:2.61313}
    .fil6 {fill:none}
    .fil3 {fill:#FEFEFE}
    .fil4 {fill:#FFF000}
    .fil5 {fill:#009B4C}
    .fil2 {fill:#2F318B}
    .fil0 {fill:#FEFEFE;fill-rule:nonzero}
    .fil1 {fill:#FFF000;fill-rule:nonzero}
   ]]>
  </style>
 </defs>
 <g id="Layer_x0020_1">
  <metadata id="CorelCorpID_0Corel-Layer"/>
  <g id="_1696642021696">
   <path class="fil0" d="M733.09 341.52l9.88 10.27 0.08 -0.08 -0.81 0.8 -0.82 0.8 -0.83 0.79 -0.79 0.77 -0.77 0.74 -0.77 0.74 -0.73 0.73 -0.72 0.73 -0.68 0.72 -0.64 0.7 -0.62 0.69 -0.6 0.71 -0.55 0.71 -0.52 0.7 -0.49 0.72 -0.46 0.7 -0.4 0.73 -0.39 0.73 -0.35 0.74 -0.31 0.78 -0.29 0.79 -0.27 0.83 -0.22 0.87 -0.16 0.93 -0.13 0.94 -0.11 1.03 -0.06 1.08 -0.01 1.16 0.07 1.22 0.11 1.28 0.18 1.38 0.23 1.46 -14.02 2.57 -0.34 -1.97 -0.23 -1.93 -0.17 -1.9 -0.06 -1.83 0 -1.78 0.07 -1.75 0.16 -1.69 0.24 -1.67 0.33 -1.6 0.39 -1.54 0.44 -1.5 0.51 -1.46 0.58 -1.39 0.63 -1.36 0.67 -1.29 0.74 -1.23 0.74 -1.2 0.77 -1.11 0.8 -1.1 0.83 -1.03 0.82 -0.99 0.85 -0.97 0.86 -0.93 0.85 -0.88 0.83 -0.85 0.84 -0.83 0.82 -0.81 0.83 -0.79 0.79 -0.77 0.77 -0.74 0.77 -0.74 0.75 -0.75 0.09 -0.08zm-0.09 0.08l0.09 -0.08 0.03 -0.03 -0.12 0.11zm12.9 -46.52l8.49 11.44 2.57 -7.84 0.45 1.57 0.39 1.61 0.32 1.66 0.25 1.63 0.19 1.7 0.14 1.71 0.06 1.73 0.02 1.69 -0.03 1.75 -0.08 1.77 -0.16 1.75 -0.2 1.79 -0.26 1.77 -0.3 1.8 -0.34 1.77 -0.43 1.78 -0.47 1.76 -0.51 1.76 -0.56 1.75 -0.64 1.76 -0.68 1.71 -0.72 1.69 -0.78 1.69 -0.84 1.63 -0.92 1.63 -0.93 1.59 -1.03 1.56 -1.05 1.51 -1.15 1.47 -1.17 1.45 -1.26 1.36 -1.3 1.31 -9.88 -10.27 0.85 -0.86 0.82 -0.92 0.83 -0.95 0.76 -1.02 0.77 -1.06 0.7 -1.11 0.71 -1.15 0.63 -1.18 0.63 -1.25 0.6 -1.24 0.56 -1.3 0.51 -1.32 0.47 -1.31 0.45 -1.35 0.4 -1.37 0.36 -1.38 0.31 -1.38 0.29 -1.38 0.24 -1.36 0.2 -1.38 0.15 -1.34 0.1 -1.36 0.08 -1.32 0.04 -1.3 -0.02 -1.31 -0.06 -1.23 -0.09 -1.2 -0.14 -1.14 -0.18 -1.13 -0.21 -1.05 -0.23 -1 -0.28 -0.95 2.56 -7.84zm-2.56 7.84l-1.51 -4.81 4.07 -3.03 -2.56 7.84zm16.4 -45.25l14.07 -2.29 -0.03 -0.19 0.31 1.86 0.22 1.86 0.15 1.87 0.06 1.86 0 1.84 -0.07 1.88 -0.15 1.85 -0.21 1.86 -0.27 1.82 -0.32 1.83 -0.4 1.81 -0.45 1.81 -0.49 1.79 -0.55 1.75 -0.61 1.74 -0.66 1.71 -0.67 1.68 -0.75 1.64 -0.8 1.63 -0.81 1.6 -0.88 1.56 -0.91 1.5 -0.93 1.49 -1 1.44 -1.02 1.37 -1.04 1.34 -1.1 1.3 -1.14 1.23 -1.17 1.21 -1.18 1.12 -1.25 1.06 -1.3 1.02 -8.49 -11.44 0.74 -0.58 0.75 -0.66 0.8 -0.73 0.77 -0.76 0.75 -0.85 0.77 -0.9 0.76 -0.96 0.74 -1.03 0.72 -1.05 0.71 -1.1 0.68 -1.16 0.65 -1.18 0.65 -1.2 0.58 -1.25 0.58 -1.29 0.56 -1.3 0.49 -1.32 0.45 -1.34 0.43 -1.36 0.39 -1.35 0.33 -1.36 0.29 -1.37 0.26 -1.38 0.21 -1.37 0.16 -1.36 0.1 -1.35 0.06 -1.32 0 -1.34 -0.05 -1.3 -0.1 -1.25 -0.16 -1.25 -0.2 -1.2 -0.03 -0.19zm0.03 0.19l-0.03 -0.19 0.06 0.34 -0.03 -0.15zm13.88 -30.96l1.84 -14.13 4.07 12.15 -1.06 1.08 -0.94 1.02 -0.84 1.01 -0.74 0.97 -0.69 0.96 -0.6 0.93 -0.52 0.92 -0.44 0.88 -0.4 0.84 -0.32 0.87 -0.28 0.83 -0.25 0.82 -0.19 0.82 -0.16 0.84 -0.1 0.84 -0.09 0.85 -0.07 0.85 -0.02 0.88 0.01 0.89 0.05 0.92 0.08 0.92 0.08 0.94 0.1 0.97 0.15 0.99 0.15 0.99 0.18 1.04 0.19 1.04 0.17 1.07 0.2 1.09 0.22 1.12 0.19 1.12 0.19 1.15 -14.07 2.29 -0.18 -1.04 -0.2 -1.06 -0.17 -1.06 -0.19 -1.1 -0.23 -1.12 -0.19 -1.15 -0.18 -1.16 -0.2 -1.21 -0.15 -1.21 -0.16 -1.25 -0.13 -1.28 -0.08 -1.3 -0.05 -1.32 -0.02 -1.34 0.03 -1.38 0.07 -1.41 0.14 -1.41 0.22 -1.45 0.27 -1.45 0.35 -1.49 0.42 -1.49 0.5 -1.51 0.61 -1.47 0.67 -1.52 0.78 -1.5 0.85 -1.47 0.94 -1.48 1.01 -1.47 1.15 -1.47 1.22 -1.46 1.33 -1.46 1.4 -1.42 4.08 12.14zm1.84 -14.13l14.51 1.92 -10.44 10.23 -4.07 -12.15zm-34.73 -14.96l12.89 -6.03 -0.06 -0.11 0.52 1.05 0.5 1.03 0.47 1.03 0.47 1.01 0.48 0.98 0.45 0.98 0.45 0.92 0.47 0.92 0.46 0.9 0.45 0.84 0.47 0.83 0.49 0.79 0.49 0.77 0.5 0.73 0.5 0.67 0.53 0.69 0.55 0.63 0.56 0.58 0.61 0.58 0.6 0.55 0.68 0.51 0.68 0.52 0.74 0.47 0.8 0.44 0.83 0.43 0.94 0.41 0.97 0.4 1.08 0.35 1.15 0.33 1.23 0.28 1.35 0.25 1.43 0.23 -1.84 14.13 -1.99 -0.29 -1.9 -0.37 -1.85 -0.44 -1.77 -0.5 -1.69 -0.58 -1.64 -0.62 -1.55 -0.69 -1.51 -0.76 -1.41 -0.83 -1.35 -0.87 -1.3 -0.9 -1.18 -0.96 -1.16 -1 -1.05 -1.02 -1.01 -1.08 -0.94 -1.08 -0.87 -1.08 -0.84 -1.12 -0.77 -1.12 -0.72 -1.11 -0.65 -1.12 -0.64 -1.11 -0.61 -1.12 -0.57 -1.07 -0.53 -1.08 -0.51 -1.09 -0.51 -1.03 -0.47 -1.04 -0.48 -1.01 -0.47 -0.98 -0.44 -0.97 -0.46 -0.94 -0.05 -0.11zm0.05 0.11l-0.05 -0.11 -0.05 -0.09 0.1 0.2zm-39.53 -26.91l13.57 -4.3 -6.79 -4.99 1.63 0.06 1.66 0.12 1.65 0.19 1.65 0.27 1.65 0.34 1.65 0.39 1.65 0.45 1.64 0.54 1.64 0.58 1.64 0.64 1.61 0.7 1.6 0.74 1.6 0.82 1.59 0.84 1.54 0.91 1.56 0.96 1.51 1 1.48 1.07 1.46 1.09 1.46 1.15 1.4 1.19 1.37 1.25 1.32 1.26 1.26 1.35 1.24 1.36 1.2 1.41 1.14 1.48 1.09 1.47 1.01 1.55 0.98 1.59 0.89 1.63 0.82 1.66 -12.89 6.03 -0.55 -1.1 -0.61 -1.08 -0.64 -1.08 -0.73 -1.05 -0.76 -1.08 -0.8 -1.03 -0.87 -1.02 -0.9 -1.02 -0.98 -0.96 -0.99 -0.98 -1.03 -0.92 -1.07 -0.91 -1.07 -0.88 -1.12 -0.86 -1.15 -0.79 -1.18 -0.78 -1.16 -0.73 -1.21 -0.69 -1.2 -0.67 -1.21 -0.6 -1.21 -0.57 -1.22 -0.53 -1.19 -0.47 -1.19 -0.43 -1.19 -0.36 -1.15 -0.34 -1.15 -0.28 -1.1 -0.22 -1.08 -0.17 -1.04 -0.13 -0.99 -0.07 -0.96 0 -6.78 -5zm6.78 5l-5.19 0 -1.59 -5 6.78 5zm-37.28 -29.89l2.17 -14.13 -0.25 -0.03 1.85 0.28 1.84 0.35 1.81 0.44 1.77 0.52 1.76 0.57 1.75 0.67 1.69 0.73 1.69 0.76 1.65 0.83 1.6 0.92 1.57 0.94 1.56 0.98 1.52 1.06 1.47 1.06 1.44 1.14 1.41 1.17 1.37 1.2 1.31 1.23 1.26 1.26 1.26 1.31 1.18 1.33 1.14 1.35 1.09 1.37 1.03 1.38 0.96 1.42 0.94 1.46 0.87 1.46 0.79 1.47 0.76 1.49 0.67 1.53 0.63 1.51 0.51 1.56 -13.57 4.3 -0.34 -0.89 -0.35 -0.96 -0.44 -0.96 -0.48 -0.99 -0.57 -1.02 -0.6 -1.02 -0.65 -1.01 -0.74 -1.03 -0.76 -1.05 -0.81 -1.03 -0.85 -1.02 -0.91 -0.99 -0.92 -0.98 -0.98 -0.98 -1.03 -0.95 -1.04 -0.92 -1.07 -0.89 -1.1 -0.86 -1.14 -0.84 -1.13 -0.78 -1.16 -0.76 -1.19 -0.71 -1.21 -0.64 -1.2 -0.62 -1.19 -0.58 -1.24 -0.51 -1.19 -0.44 -1.21 -0.41 -1.21 -0.35 -1.19 -0.27 -1.18 -0.24 -1.17 -0.16 -0.25 -0.03zm0.25 0.03l-0.25 -0.03 -0.07 -0.01 0.32 0.04zm-24.58 -22.9l-12.9 -6.14 12.9 0 0.65 1.36 0.7 1.24 0.66 1.13 0.69 1.05 0.68 0.95 0.69 0.87 0.68 0.75 0.67 0.71 0.69 0.66 0.68 0.56 0.69 0.54 0.7 0.46 0.69 0.45 0.72 0.39 0.74 0.37 0.75 0.34 0.78 0.3 0.8 0.29 0.8 0.25 0.86 0.24 0.87 0.21 0.9 0.2 0.93 0.19 0.96 0.16 0.97 0.18 1 0.13 1.05 0.15 1.06 0.15 1.08 0.15 1.07 0.14 1.14 0.15 1.15 0.16 -2.17 14.13 -0.99 -0.16 -1.02 -0.15 -1.08 -0.15 -1.08 -0.14 -1.11 -0.15 -1.11 -0.15 -1.17 -0.19 -1.19 -0.18 -1.18 -0.22 -1.22 -0.24 -1.23 -0.26 -1.26 -0.32 -1.26 -0.36 -1.3 -0.41 -1.29 -0.45 -1.29 -0.53 -1.31 -0.57 -1.29 -0.64 -1.28 -0.73 -1.31 -0.79 -1.26 -0.9 -1.24 -0.94 -1.24 -1.06 -1.19 -1.1 -1.17 -1.21 -1.13 -1.31 -1.09 -1.37 -1.06 -1.46 -1.02 -1.54 -1 -1.64 -0.93 -1.74 -0.93 -1.81 12.9 0zm-12.9 -6.14l6.45 -13.54 6.45 13.54 -12.9 0zm-24.58 29.04l-1.67 -14.19 -0.25 0.03 1.15 -0.16 1.14 -0.15 1.07 -0.14 1.09 -0.15 1.05 -0.15 1.05 -0.15 1 -0.13 0.97 -0.18 0.96 -0.16 0.93 -0.19 0.9 -0.2 0.87 -0.21 0.86 -0.24 0.81 -0.25 0.79 -0.29 0.78 -0.3 0.75 -0.34 0.74 -0.37 0.7 -0.39 0.71 -0.45 0.7 -0.46 0.69 -0.54 0.68 -0.56 0.69 -0.66 0.67 -0.71 0.68 -0.75 0.7 -0.87 0.67 -0.95 0.69 -1.05 0.66 -1.13 0.7 -1.24 0.65 -1.36 12.9 6.14 -0.93 1.81 -0.93 1.74 -0.99 1.64 -1.03 1.54 -1.06 1.46 -1.09 1.37 -1.13 1.31 -1.17 1.21 -1.19 1.1 -1.24 1.06 -1.24 0.94 -1.26 0.9 -1.28 0.79 -1.31 0.73 -1.29 0.64 -1.31 0.57 -1.29 0.53 -1.29 0.45 -1.3 0.41 -1.26 0.36 -1.26 0.32 -1.23 0.26 -1.22 0.24 -1.18 0.22 -1.19 0.18 -1.17 0.19 -1.11 0.15 -1.11 0.15 -1.08 0.14 -1.08 0.15 -1.02 0.15 -0.99 0.16 -0.25 0.03zm0.25 -0.03l-0.25 0.03 0.32 -0.04 -0.07 0.01zm-37.28 29.89l0 -14.29 -6.79 4.99 0.51 -1.56 0.63 -1.51 0.67 -1.53 0.76 -1.49 0.79 -1.47 0.87 -1.46 0.94 -1.46 0.96 -1.42 1.03 -1.38 1.09 -1.37 1.14 -1.35 1.18 -1.33 1.26 -1.31 1.26 -1.26 1.31 -1.23 1.37 -1.2 1.41 -1.17 1.44 -1.14 1.47 -1.06 1.52 -1.06 1.56 -0.98 1.57 -0.94 1.6 -0.92 1.65 -0.83 1.69 -0.76 1.69 -0.73 1.75 -0.67 1.76 -0.57 1.77 -0.52 1.81 -0.44 1.84 -0.35 1.85 -0.28 1.67 14.19 -1.17 0.16 -1.17 0.24 -1.2 0.27 -1.21 0.35 -1.21 0.41 -1.19 0.44 -1.23 0.51 -1.2 0.58 -1.2 0.62 -1.21 0.64 -1.18 0.71 -1.17 0.76 -1.13 0.78 -1.14 0.84 -1.1 0.86 -1.07 0.89 -1.04 0.92 -1.03 0.95 -0.98 0.98 -0.92 0.98 -0.91 0.99 -0.85 1.02 -0.81 1.03 -0.76 1.05 -0.74 1.03 -0.65 1.01 -0.6 1.02 -0.57 1.02 -0.47 0.99 -0.45 0.96 -0.35 0.96 -0.34 0.89 -6.78 5zm6.78 -5l-1.59 5 -5.19 0 6.78 -5zm-39.53 26.91l-12.78 -6.25 -0.06 0.11 0.82 -1.66 0.89 -1.63 0.98 -1.59 1.01 -1.55 1.09 -1.47 1.14 -1.48 1.2 -1.41 1.24 -1.36 1.26 -1.35 1.32 -1.26 1.37 -1.25 1.4 -1.19 1.46 -1.15 1.46 -1.09 1.48 -1.07 1.51 -1 1.56 -0.96 1.54 -0.91 1.59 -0.84 1.6 -0.82 1.6 -0.74 1.61 -0.7 1.65 -0.64 1.63 -0.58 1.64 -0.54 1.65 -0.45 1.65 -0.39 1.66 -0.34 1.64 -0.27 1.65 -0.19 1.66 -0.12 1.63 -0.06 0 14.29 -0.96 0 -0.99 0.07 -1.04 0.13 -1.08 0.17 -1.1 0.22 -1.15 0.28 -1.15 0.34 -1.18 0.36 -1.2 0.43 -1.19 0.47 -1.22 0.53 -1.21 0.57 -1.21 0.6 -1.2 0.67 -1.21 0.69 -1.16 0.73 -1.18 0.78 -1.15 0.79 -1.12 0.86 -1.07 0.88 -1.06 0.91 -1.04 0.92 -0.99 0.98 -0.98 0.96 -0.9 1.02 -0.87 1.02 -0.8 1.03 -0.76 1.08 -0.73 1.05 -0.64 1.08 -0.61 1.08 -0.55 1.1 -0.05 0.11zm0.05 -0.11l-0.05 0.11 0.1 -0.2 -0.05 0.09zm-28.81 16.95l-9.99 10.16 4.07 -12.15 1.43 -0.23 1.35 -0.25 1.23 -0.28 1.15 -0.33 1.08 -0.35 0.97 -0.4 0.94 -0.41 0.83 -0.43 0.8 -0.44 0.74 -0.47 0.68 -0.52 0.65 -0.51 0.63 -0.55 0.61 -0.58 0.56 -0.58 0.55 -0.63 0.54 -0.69 0.49 -0.67 0.5 -0.73 0.49 -0.77 0.49 -0.79 0.47 -0.83 0.45 -0.84 0.46 -0.9 0.47 -0.92 0.46 -0.92 0.45 -0.98 0.47 -0.98 0.47 -1.01 0.47 -1.03 0.51 -1.03 0.51 -1.05 12.78 6.25 -0.46 0.94 -0.44 0.97 -0.47 0.98 -0.48 1.01 -0.47 1.04 -0.5 1.03 -0.52 1.09 -0.53 1.08 -0.56 1.07 -0.62 1.12 -0.63 1.11 -0.66 1.12 -0.72 1.11 -0.77 1.12 -0.84 1.12 -0.87 1.08 -0.94 1.08 -1 1.08 -1.06 1.02 -1.13 1 -1.21 0.96 -1.3 0.9 -1.35 0.87 -1.41 0.83 -1.51 0.76 -1.55 0.69 -1.64 0.62 -1.69 0.58 -1.77 0.5 -1.84 0.44 -1.91 0.37 -1.99 0.29 4.08 -12.14zm-9.99 10.16l-10.44 -10.23 14.51 -1.92 -4.07 12.15zm19.79 32.94l-14.01 -2.67 -0.03 0.19 0.19 -1.15 0.19 -1.12 0.22 -1.12 0.2 -1.09 0.17 -1.07 0.19 -1.04 0.19 -1.04 0.14 -0.99 0.15 -0.99 0.1 -0.97 0.08 -0.94 0.08 -0.92 0.05 -0.92 0.01 -0.89 -0.02 -0.88 -0.07 -0.85 -0.09 -0.85 -0.1 -0.84 -0.16 -0.81 -0.19 -0.85 -0.25 -0.82 -0.28 -0.83 -0.32 -0.87 -0.4 -0.84 -0.44 -0.88 -0.52 -0.92 -0.6 -0.93 -0.69 -0.96 -0.74 -0.97 -0.84 -1.01 -0.94 -1.02 -1.06 -1.08 9.99 -10.16 1.4 1.42 1.33 1.46 1.22 1.46 1.15 1.47 1.01 1.47 0.94 1.48 0.85 1.47 0.78 1.5 0.67 1.52 0.61 1.47 0.5 1.51 0.42 1.49 0.35 1.46 0.27 1.48 0.22 1.45 0.14 1.41 0.07 1.41 0.03 1.38 -0.02 1.34 -0.05 1.32 -0.08 1.3 -0.13 1.28 -0.16 1.25 -0.15 1.21 -0.2 1.21 -0.18 1.16 -0.19 1.15 -0.22 1.12 -0.2 1.1 -0.17 1.06 -0.19 1.06 -0.19 1.04 -0.03 0.19zm0.03 -0.19l-0.03 0.19 -0.02 0.15 0.05 -0.34zm16.4 45.25l-13.62 -4.24 2.57 7.84 -1.29 -1.02 -1.26 -1.06 -1.18 -1.12 -1.17 -1.21 -1.14 -1.23 -1.1 -1.3 -1.04 -1.34 -1.02 -1.37 -1 -1.44 -0.93 -1.49 -0.91 -1.5 -0.88 -1.56 -0.81 -1.6 -0.81 -1.63 -0.73 -1.64 -0.68 -1.68 -0.66 -1.71 -0.61 -1.74 -0.55 -1.75 -0.49 -1.79 -0.45 -1.81 -0.4 -1.81 -0.32 -1.83 -0.27 -1.82 -0.21 -1.86 -0.15 -1.85 -0.06 -1.88 -0.01 -1.84 0.06 -1.86 0.15 -1.87 0.22 -1.86 0.31 -1.86 14.01 2.67 -0.2 1.2 -0.16 1.25 -0.09 1.25 -0.06 1.3 0 1.34 0.06 1.32 0.1 1.35 0.16 1.36 0.21 1.37 0.26 1.38 0.29 1.37 0.33 1.36 0.39 1.35 0.43 1.36 0.45 1.34 0.49 1.32 0.57 1.3 0.57 1.29 0.58 1.25 0.65 1.2 0.65 1.18 0.68 1.16 0.71 1.1 0.72 1.05 0.74 1.03 0.77 0.96 0.76 0.9 0.75 0.85 0.78 0.76 0.79 0.73 0.75 0.66 0.74 0.58 2.56 7.84zm-2.56 -7.84l4.07 3.03 -1.51 4.81 -2.56 -7.84zm12.9 46.52l-10.05 10.11 0.08 0.08 -1.3 -1.31 -1.26 -1.36 -1.17 -1.45 -1.15 -1.47 -1.04 -1.51 -1.04 -1.56 -0.93 -1.59 -0.92 -1.6 -0.82 -1.66 -0.8 -1.69 -0.72 -1.69 -0.68 -1.71 -0.64 -1.76 -0.56 -1.75 -0.51 -1.76 -0.47 -1.76 -0.43 -1.78 -0.34 -1.77 -0.3 -1.8 -0.26 -1.77 -0.2 -1.79 -0.16 -1.75 -0.08 -1.77 -0.03 -1.75 0.02 -1.72 0.06 -1.7 0.14 -1.71 0.2 -1.7 0.24 -1.63 0.32 -1.66 0.39 -1.61 0.45 -1.57 13.62 4.24 -0.28 0.95 -0.23 1 -0.2 1.05 -0.19 1.13 -0.14 1.14 -0.08 1.2 -0.07 1.26 -0.01 1.28 0.03 1.3 0.08 1.32 0.1 1.36 0.15 1.34 0.19 1.38 0.25 1.36 0.29 1.38 0.31 1.38 0.36 1.38 0.4 1.37 0.45 1.35 0.47 1.31 0.51 1.32 0.56 1.3 0.58 1.24 0.65 1.22 0.64 1.21 0.7 1.15 0.7 1.11 0.77 1.06 0.76 1.02 0.83 0.95 0.82 0.92 0.86 0.86 0.08 0.08zm-0.08 -0.08l0.08 0.08 -0.12 -0.11 0.04 0.03zm6.46 32.95l6.98 12.45 -10.5 -7.51 0.23 -1.46 0.19 -1.38 0.1 -1.28 0.07 -1.22 0 -1.16 -0.07 -1.08 -0.11 -1.03 -0.13 -0.94 -0.16 -0.93 -0.22 -0.87 -0.27 -0.83 -0.29 -0.79 -0.31 -0.78 -0.35 -0.74 -0.38 -0.73 -0.41 -0.73 -0.46 -0.7 -0.49 -0.72 -0.52 -0.7 -0.55 -0.71 -0.6 -0.71 -0.62 -0.69 -0.64 -0.7 -0.68 -0.72 -0.72 -0.73 -0.73 -0.73 -0.77 -0.74 -0.77 -0.74 -0.79 -0.77 -0.83 -0.79 -0.82 -0.8 -0.81 -0.8 10.05 -10.11 0.76 0.75 0.76 0.74 0.77 0.74 0.79 0.77 0.83 0.79 0.82 0.81 0.84 0.83 0.83 0.85 0.86 0.88 0.86 0.93 0.84 0.97 0.82 0.99 0.83 1.03 0.8 1.1 0.77 1.11 0.74 1.2 0.74 1.23 0.67 1.29 0.63 1.36 0.58 1.39 0.51 1.46 0.44 1.5 0.39 1.54 0.33 1.6 0.24 1.67 0.16 1.69 0.07 1.75 0 1.78 -0.06 1.83 -0.16 1.9 -0.24 1.93 -0.34 1.97 -10.5 -7.51zm6.98 12.45l-13.27 7.46 2.77 -14.97 10.5 7.51zm36.51 -8.74l-6.92 12.45 0.11 0.05 -1.01 -0.54 -1.01 -0.56 -0.96 -0.53 -0.95 -0.54 -0.93 -0.5 -0.94 -0.53 -0.88 -0.46 -0.89 -0.48 -0.87 -0.44 -0.85 -0.39 -0.83 -0.39 -0.85 -0.34 -0.8 -0.31 -0.82 -0.28 -0.81 -0.24 -0.79 -0.23 -0.79 -0.16 -0.8 -0.14 -0.8 -0.12 -0.8 -0.06 -0.82 -0.04 -0.87 0.03 -0.87 0.06 -0.9 0.14 -0.93 0.14 -0.99 0.23 -1.02 0.29 -1.09 0.36 -1.11 0.44 -1.18 0.53 -1.25 0.59 -1.29 0.71 -6.98 -12.45 1.79 -0.94 1.75 -0.87 1.74 -0.75 1.73 -0.66 1.7 -0.58 1.69 -0.46 1.66 -0.39 1.66 -0.32 1.62 -0.19 1.6 -0.11 1.54 -0.03 1.55 0.03 1.52 0.12 1.47 0.17 1.42 0.26 1.4 0.32 1.35 0.34 1.31 0.41 1.27 0.45 1.24 0.48 1.18 0.51 1.18 0.5 1.13 0.56 1.09 0.55 1.06 0.53 1.05 0.58 0.99 0.52 0.98 0.57 0.96 0.53 0.95 0.53 0.9 0.5 0.9 0.49 0.11 0.06zm-0.11 -0.06l0.11 0.06 0.17 0.09 -0.28 -0.15zm47.45 -1.94l-8.42 11.5 8.42 0 -1.34 0.94 -1.41 0.88 -1.43 0.81 -1.48 0.77 -1.53 0.72 -1.57 0.67 -1.58 0.6 -1.62 0.57 -1.66 0.5 -1.69 0.45 -1.71 0.42 -1.72 0.37 -1.76 0.3 -1.75 0.25 -1.8 0.21 -1.81 0.16 -1.79 0.09 -1.82 0.04 -1.8 -0.01 -1.83 -0.05 -1.82 -0.11 -1.82 -0.19 -1.84 -0.24 -1.79 -0.32 -1.8 -0.37 -1.79 -0.43 -1.79 -0.51 -1.74 -0.57 -1.74 -0.62 -1.73 -0.73 -1.67 -0.77 -1.63 -0.88 6.92 -12.45 1.08 0.55 1.11 0.54 1.11 0.46 1.18 0.45 1.24 0.4 1.23 0.34 1.28 0.32 1.31 0.26 1.34 0.21 1.34 0.18 1.37 0.13 1.37 0.11 1.38 0.06 1.41 0.01 1.38 -0.04 1.4 -0.09 1.36 -0.11 1.35 -0.15 1.37 -0.2 1.31 -0.24 1.33 -0.26 1.26 -0.31 1.25 -0.34 1.21 -0.39 1.17 -0.39 1.14 -0.44 1.07 -0.45 1.03 -0.49 0.97 -0.49 0.93 -0.54 0.85 -0.54 0.79 -0.55 8.42 0zm-8.42 0l4.21 -3.08 4.21 3.08 -8.42 0zm47.45 1.94l6.7 12.56 0.11 -0.05 -1.63 0.88 -1.67 0.77 -1.73 0.73 -1.74 0.62 -1.74 0.57 -1.79 0.51 -1.79 0.43 -1.8 0.37 -1.79 0.32 -1.84 0.24 -1.81 0.19 -1.83 0.11 -1.83 0.05 -1.79 0.01 -1.83 -0.04 -1.79 -0.09 -1.81 -0.16 -1.8 -0.21 -1.75 -0.25 -1.76 -0.3 -1.72 -0.37 -1.71 -0.42 -1.69 -0.45 -1.65 -0.5 -1.63 -0.57 -1.58 -0.6 -1.58 -0.67 -1.52 -0.72 -1.48 -0.77 -1.43 -0.81 -1.41 -0.88 -1.34 -0.94 8.42 -11.5 0.8 0.55 0.84 0.54 0.93 0.54 0.98 0.49 1.02 0.49 1.07 0.45 1.14 0.44 1.17 0.39 1.21 0.39 1.25 0.34 1.26 0.31 1.33 0.26 1.31 0.24 1.37 0.2 1.35 0.15 1.36 0.11 1.4 0.09 1.38 0.04 1.41 -0.01 1.38 -0.06 1.37 -0.11 1.37 -0.13 1.34 -0.18 1.34 -0.21 1.31 -0.26 1.28 -0.32 1.23 -0.34 1.24 -0.4 1.17 -0.45 1.12 -0.46 1.11 -0.54 1.08 -0.55 0.11 -0.06zm-0.11 0.06l0.11 -0.06 -0.28 0.15 0.17 -0.09zm32.99 3.8l14.02 -2.57 -10.5 7.51 -1.29 -0.71 -1.24 -0.59 -1.19 -0.53 -1.11 -0.44 -1.09 -0.36 -1.02 -0.29 -0.99 -0.23 -0.93 -0.14 -0.9 -0.14 -0.87 -0.06 -0.87 -0.03 -0.82 0.04 -0.8 0.06 -0.8 0.12 -0.8 0.14 -0.79 0.16 -0.79 0.23 -0.81 0.24 -0.82 0.28 -0.8 0.31 -0.85 0.34 -0.83 0.39 -0.85 0.39 -0.87 0.44 -0.89 0.48 -0.88 0.46 -0.94 0.53 -0.93 0.5 -0.96 0.54 -0.95 0.53 -1.01 0.56 -1.01 0.54 -6.7 -12.56 0.9 -0.49 0.9 -0.5 0.95 -0.53 0.96 -0.53 0.98 -0.57 0.99 -0.52 1.06 -0.58 1.05 -0.53 1.1 -0.55 1.13 -0.56 1.17 -0.5 1.18 -0.51 1.25 -0.48 1.26 -0.45 1.31 -0.41 1.35 -0.34 1.4 -0.32 1.42 -0.26 1.47 -0.17 1.52 -0.12 1.55 -0.03 1.54 0.03 1.6 0.11 1.62 0.19 1.66 0.32 1.66 0.39 1.69 0.46 1.7 0.58 1.73 0.66 1.74 0.75 1.75 0.87 1.79 0.94 -10.5 7.51zm14.02 -2.57l2.77 14.97 -13.27 -7.46 10.5 -7.51z"/>
   <path class="fil1" d="M733.08 341.51l9.88 10.27 0.08 -0.08 -0.81 0.8 -0.82 0.8 -0.82 0.79 -0.8 0.77 -0.77 0.74 -0.77 0.74 -0.73 0.73 -0.72 0.73 -0.68 0.72 -0.63 0.7 -0.63 0.69 -0.6 0.72 -0.54 0.7 -0.53 0.7 -0.49 0.72 -0.46 0.7 -0.4 0.73 -0.39 0.73 -0.35 0.74 -0.31 0.78 -0.29 0.79 -0.27 0.83 -0.21 0.87 -0.17 0.93 -0.13 0.94 -0.1 1.03 -0.07 1.07 -0.01 1.17 0.07 1.22 0.11 1.28 0.18 1.38 0.23 1.46 -14.01 2.57 -0.34 -1.97 -0.24 -1.93 -0.16 -1.9 -0.07 -1.83 0 -1.78 0.07 -1.75 0.16 -1.69 0.25 -1.67 0.33 -1.59 0.38 -1.55 0.44 -1.5 0.51 -1.46 0.59 -1.39 0.63 -1.36 0.67 -1.29 0.73 -1.23 0.74 -1.2 0.77 -1.11 0.8 -1.09 0.83 -1.04 0.83 -0.99 0.84 -0.97 0.86 -0.93 0.85 -0.88 0.83 -0.85 0.84 -0.83 0.82 -0.8 0.83 -0.8 0.8 -0.77 0.76 -0.74 0.77 -0.74 0.75 -0.74 0.09 -0.09zm-0.09 0.09l0.09 -0.09 0.03 -0.03 -0.12 0.12zm12.91 -46.53l8.48 11.44 2.57 -7.84 0.45 1.57 0.4 1.62 0.32 1.65 0.23 1.64 0.2 1.7 0.14 1.7 0.06 1.73 0.02 1.7 -0.03 1.75 -0.08 1.76 -0.16 1.75 -0.2 1.79 -0.26 1.77 -0.3 1.8 -0.34 1.78 -0.43 1.77 -0.47 1.77 -0.51 1.76 -0.56 1.74 -0.64 1.76 -0.68 1.71 -0.72 1.69 -0.78 1.69 -0.84 1.63 -0.92 1.63 -0.93 1.6 -1.03 1.55 -1.05 1.51 -1.15 1.47 -1.16 1.45 -1.27 1.36 -1.3 1.31 -9.88 -10.27 0.86 -0.86 0.81 -0.92 0.83 -0.94 0.76 -1.02 0.77 -1.07 0.7 -1.11 0.71 -1.15 0.63 -1.18 0.63 -1.24 0.6 -1.25 0.56 -1.3 0.51 -1.32 0.47 -1.31 0.45 -1.35 0.4 -1.37 0.36 -1.38 0.31 -1.38 0.29 -1.38 0.25 -1.36 0.19 -1.37 0.15 -1.35 0.1 -1.36 0.09 -1.32 0.03 -1.3 -0.02 -1.31 -0.06 -1.22 -0.09 -1.2 -0.14 -1.14 -0.18 -1.14 -0.21 -1.04 -0.23 -1 -0.28 -0.96 2.57 -7.84zm-2.57 7.84l-1.51 -4.81 4.08 -3.03 -2.57 7.84zm16.4 -45.24l14.07 -2.29 -0.03 -0.2 0.31 1.87 0.22 1.86 0.15 1.87 0.06 1.86 -0.01 1.84 -0.06 1.88 -0.15 1.85 -0.21 1.86 -0.27 1.82 -0.32 1.82 -0.4 1.82 -0.45 1.81 -0.49 1.79 -0.55 1.75 -0.61 1.73 -0.66 1.71 -0.68 1.69 -0.74 1.63 -0.8 1.64 -0.81 1.6 -0.88 1.56 -0.91 1.5 -0.93 1.48 -1 1.45 -1.02 1.36 -1.04 1.35 -1.1 1.29 -1.14 1.24 -1.17 1.21 -1.18 1.12 -1.25 1.06 -1.3 1.01 -8.48 -11.44 0.73 -0.57 0.75 -0.67 0.8 -0.72 0.77 -0.77 0.75 -0.85 0.77 -0.9 0.76 -0.95 0.74 -1.04 0.72 -1.05 0.71 -1.09 0.68 -1.16 0.65 -1.18 0.65 -1.21 0.58 -1.24 0.58 -1.3 0.56 -1.29 0.49 -1.32 0.45 -1.35 0.43 -1.36 0.39 -1.34 0.33 -1.36 0.29 -1.37 0.26 -1.38 0.21 -1.38 0.16 -1.35 0.09 -1.35 0.07 -1.32 0 -1.34 -0.05 -1.3 -0.1 -1.26 -0.16 -1.24 -0.2 -1.2 -0.03 -0.19zm0.03 0.19l-0.03 -0.19 0.06 0.34 -0.03 -0.15zm13.87 -30.96l1.85 -14.12 4.07 12.14 -1.06 1.08 -0.94 1.02 -0.84 1.01 -0.75 0.97 -0.68 0.96 -0.6 0.93 -0.52 0.92 -0.44 0.88 -0.4 0.84 -0.32 0.87 -0.28 0.83 -0.25 0.83 -0.19 0.81 -0.16 0.84 -0.1 0.84 -0.09 0.85 -0.07 0.85 -0.02 0.88 0.01 0.89 0.05 0.93 0.08 0.91 0.08 0.94 0.1 0.97 0.15 0.99 0.14 0.99 0.19 1.04 0.19 1.04 0.16 1.07 0.21 1.09 0.22 1.12 0.19 1.12 0.19 1.15 -14.07 2.29 -0.18 -1.04 -0.2 -1.06 -0.17 -1.06 -0.2 -1.1 -0.22 -1.12 -0.19 -1.15 -0.18 -1.16 -0.2 -1.21 -0.15 -1.21 -0.16 -1.25 -0.13 -1.28 -0.08 -1.3 -0.05 -1.32 -0.02 -1.34 0.03 -1.38 0.07 -1.4 0.14 -1.42 0.22 -1.45 0.27 -1.45 0.35 -1.49 0.42 -1.49 0.5 -1.5 0.6 -1.48 0.68 -1.52 0.78 -1.49 0.85 -1.48 0.94 -1.48 1.01 -1.47 1.14 -1.47 1.23 -1.46 1.33 -1.46 1.4 -1.42 4.07 12.14zm1.85 -14.12l14.51 1.91 -10.44 10.23 -4.07 -12.14zm-34.73 -14.97l12.89 -6.03 -0.06 -0.11 0.52 1.05 0.5 1.03 0.47 1.04 0.47 1.01 0.48 0.98 0.45 0.98 0.45 0.92 0.47 0.91 0.46 0.91 0.45 0.84 0.47 0.83 0.49 0.78 0.49 0.77 0.5 0.73 0.5 0.68 0.53 0.68 0.55 0.63 0.56 0.58 0.61 0.58 0.6 0.55 0.68 0.52 0.68 0.51 0.74 0.48 0.8 0.43 0.83 0.43 0.94 0.41 0.97 0.4 1.08 0.35 1.15 0.33 1.23 0.28 1.35 0.26 1.43 0.23 -1.85 14.12 -1.98 -0.29 -1.9 -0.36 -1.85 -0.45 -1.77 -0.5 -1.69 -0.57 -1.65 -0.62 -1.54 -0.7 -1.51 -0.76 -1.41 -0.82 -1.35 -0.87 -1.3 -0.91 -1.18 -0.96 -1.16 -0.99 -1.05 -1.03 -1.01 -1.08 -0.94 -1.08 -0.87 -1.07 -0.84 -1.13 -0.77 -1.12 -0.71 -1.1 -0.66 -1.12 -0.64 -1.11 -0.61 -1.12 -0.57 -1.08 -0.53 -1.08 -0.51 -1.08 -0.51 -1.04 -0.47 -1.04 -0.47 -1 -0.48 -0.98 -0.44 -0.98 -0.46 -0.94 -0.05 -0.11zm0.05 0.11l-0.05 -0.11 -0.05 -0.09 0.1 0.2zm-39.52 -26.9l13.56 -4.3 -6.78 -4.99 1.63 0.06 1.65 0.12 1.66 0.18 1.64 0.28 1.66 0.34 1.64 0.39 1.66 0.45 1.63 0.53 1.64 0.59 1.64 0.64 1.61 0.7 1.6 0.74 1.6 0.82 1.59 0.84 1.54 0.91 1.56 0.96 1.51 1 1.48 1.07 1.47 1.08 1.45 1.15 1.4 1.19 1.37 1.26 1.32 1.26 1.26 1.35 1.24 1.35 1.2 1.42 1.14 1.47 1.09 1.47 1.01 1.56 0.98 1.58 0.89 1.64 0.82 1.65 -12.89 6.03 -0.55 -1.1 -0.6 -1.07 -0.65 -1.08 -0.73 -1.06 -0.75 -1.08 -0.81 -1.02 -0.87 -1.03 -0.9 -1.02 -0.98 -0.96 -0.99 -0.98 -1.03 -0.92 -1.07 -0.91 -1.06 -0.87 -1.13 -0.86 -1.15 -0.79 -1.17 -0.78 -1.17 -0.74 -1.21 -0.69 -1.19 -0.67 -1.21 -0.59 -1.22 -0.58 -1.22 -0.52 -1.19 -0.48 -1.19 -0.42 -1.19 -0.37 -1.15 -0.33 -1.14 -0.28 -1.1 -0.23 -1.09 -0.16 -1.04 -0.13 -0.98 -0.07 -0.96 0 -6.78 -5zm6.78 5l-5.19 0 -1.59 -5 6.78 5zm-37.28 -29.89l2.17 -14.13 -0.25 -0.02 1.84 0.27 1.85 0.35 1.8 0.44 1.78 0.52 1.76 0.58 1.75 0.66 1.68 0.73 1.69 0.76 1.65 0.83 1.6 0.92 1.58 0.94 1.55 0.98 1.53 1.06 1.47 1.06 1.44 1.14 1.4 1.17 1.38 1.2 1.3 1.23 1.27 1.26 1.25 1.31 1.18 1.33 1.14 1.35 1.09 1.37 1.04 1.38 0.96 1.42 0.93 1.46 0.88 1.46 0.79 1.47 0.75 1.49 0.67 1.52 0.63 1.52 0.51 1.56 -13.56 4.3 -0.35 -0.89 -0.35 -0.96 -0.44 -0.96 -0.48 -1 -0.56 -1.01 -0.6 -1.02 -0.66 -1.01 -0.73 -1.03 -0.76 -1.05 -0.81 -1.03 -0.86 -1.02 -0.9 -1 -0.92 -0.97 -0.99 -0.98 -1.02 -0.95 -1.04 -0.93 -1.07 -0.88 -1.11 -0.86 -1.13 -0.84 -1.14 -0.78 -1.16 -0.76 -1.19 -0.71 -1.21 -0.64 -1.2 -0.62 -1.19 -0.58 -1.23 -0.51 -1.2 -0.44 -1.2 -0.41 -1.21 -0.35 -1.2 -0.28 -1.17 -0.23 -1.17 -0.17 -0.25 -0.02zm0.25 0.02l-0.25 -0.02 -0.07 -0.01 0.32 0.03zm-24.58 -22.89l-12.9 -6.14 12.9 0 0.65 1.37 0.7 1.23 0.66 1.13 0.69 1.05 0.67 0.95 0.7 0.87 0.68 0.75 0.67 0.71 0.69 0.66 0.68 0.56 0.69 0.54 0.7 0.46 0.69 0.45 0.72 0.39 0.74 0.37 0.75 0.35 0.78 0.3 0.79 0.28 0.8 0.25 0.87 0.24 0.86 0.21 0.9 0.2 0.94 0.19 0.96 0.16 0.97 0.18 1 0.13 1.05 0.15 1.05 0.15 1.08 0.15 1.08 0.14 1.14 0.15 1.15 0.16 -2.17 14.13 -0.99 -0.16 -1.03 -0.15 -1.07 -0.15 -1.09 -0.15 -1.1 -0.14 -1.11 -0.15 -1.17 -0.19 -1.19 -0.18 -1.19 -0.22 -1.21 -0.24 -1.23 -0.26 -1.26 -0.32 -1.26 -0.36 -1.3 -0.41 -1.29 -0.45 -1.29 -0.53 -1.31 -0.57 -1.29 -0.64 -1.29 -0.73 -1.3 -0.79 -1.26 -0.9 -1.24 -0.94 -1.24 -1.06 -1.19 -1.1 -1.17 -1.21 -1.13 -1.31 -1.09 -1.37 -1.06 -1.46 -1.02 -1.54 -1 -1.64 -0.93 -1.74 -0.93 -1.81 12.9 0zm-12.9 -6.14l6.45 -13.54 6.45 13.54 -12.9 0zm-24.58 29.03l-1.67 -14.17 -0.25 0.02 1.16 -0.16 1.13 -0.15 1.08 -0.14 1.08 -0.15 1.05 -0.15 1.05 -0.15 1 -0.13 0.97 -0.18 0.96 -0.16 0.94 -0.19 0.9 -0.2 0.87 -0.21 0.86 -0.24 0.8 -0.25 0.79 -0.28 0.78 -0.3 0.75 -0.35 0.74 -0.37 0.7 -0.39 0.71 -0.45 0.7 -0.46 0.69 -0.54 0.68 -0.56 0.69 -0.66 0.67 -0.71 0.68 -0.75 0.7 -0.87 0.67 -0.95 0.69 -1.05 0.66 -1.13 0.7 -1.23 0.65 -1.37 12.9 6.14 -0.93 1.81 -0.93 1.74 -0.99 1.64 -1.03 1.54 -1.06 1.46 -1.09 1.37 -1.13 1.31 -1.17 1.21 -1.19 1.1 -1.24 1.06 -1.24 0.94 -1.26 0.9 -1.28 0.79 -1.31 0.73 -1.29 0.64 -1.31 0.57 -1.29 0.53 -1.29 0.45 -1.3 0.41 -1.26 0.36 -1.25 0.32 -1.24 0.26 -1.21 0.24 -1.19 0.22 -1.19 0.18 -1.17 0.19 -1.11 0.15 -1.1 0.14 -1.09 0.15 -1.07 0.15 -1.03 0.15 -0.99 0.16 -0.25 0.02zm0.25 -0.02l-0.25 0.02 0.32 -0.03 -0.07 0.01zm-37.28 29.89l0 -14.29 -6.78 4.99 0.51 -1.56 0.63 -1.52 0.66 -1.52 0.76 -1.49 0.79 -1.47 0.88 -1.46 0.93 -1.46 0.96 -1.42 1.04 -1.38 1.09 -1.37 1.14 -1.35 1.18 -1.33 1.25 -1.31 1.27 -1.26 1.3 -1.23 1.38 -1.2 1.4 -1.17 1.44 -1.14 1.47 -1.06 1.53 -1.06 1.55 -0.98 1.58 -0.94 1.6 -0.92 1.65 -0.83 1.69 -0.76 1.68 -0.73 1.75 -0.66 1.76 -0.58 1.78 -0.52 1.8 -0.44 1.85 -0.35 1.84 -0.27 1.67 14.17 -1.17 0.17 -1.17 0.23 -1.2 0.28 -1.21 0.35 -1.2 0.41 -1.2 0.44 -1.23 0.51 -1.19 0.58 -1.2 0.62 -1.21 0.64 -1.19 0.71 -1.16 0.76 -1.14 0.78 -1.13 0.84 -1.11 0.86 -1.07 0.88 -1.03 0.93 -1.03 0.95 -0.99 0.98 -0.92 0.97 -0.9 1 -0.86 1.02 -0.81 1.03 -0.76 1.05 -0.73 1.03 -0.66 1.01 -0.59 1.02 -0.57 1.01 -0.48 1 -0.44 0.96 -0.36 0.96 -0.34 0.89 -6.78 5zm6.78 -5l-1.59 5 -5.19 0 6.78 -5zm-39.52 26.9l-12.78 -6.25 -0.06 0.11 0.82 -1.65 0.89 -1.64 0.98 -1.58 1.01 -1.56 1.09 -1.47 1.14 -1.47 1.2 -1.42 1.24 -1.35 1.26 -1.35 1.32 -1.26 1.37 -1.26 1.4 -1.19 1.45 -1.15 1.47 -1.08 1.48 -1.07 1.51 -1 1.56 -0.96 1.54 -0.91 1.59 -0.84 1.6 -0.82 1.6 -0.74 1.61 -0.7 1.64 -0.64 1.64 -0.59 1.63 -0.53 1.66 -0.45 1.64 -0.39 1.66 -0.34 1.64 -0.28 1.65 -0.18 1.66 -0.12 1.63 -0.06 0 14.29 -0.96 0 -0.98 0.07 -1.04 0.13 -1.09 0.16 -1.1 0.23 -1.14 0.28 -1.15 0.33 -1.19 0.37 -1.19 0.42 -1.19 0.48 -1.22 0.52 -1.22 0.58 -1.2 0.59 -1.2 0.67 -1.21 0.69 -1.17 0.74 -1.17 0.78 -1.15 0.79 -1.13 0.86 -1.06 0.87 -1.07 0.91 -1.03 0.92 -0.99 0.98 -0.98 0.96 -0.9 1.02 -0.87 1.03 -0.8 1.02 -0.76 1.08 -0.73 1.06 -0.64 1.08 -0.61 1.07 -0.55 1.1 -0.05 0.11zm0.05 -0.11l-0.05 0.11 0.1 -0.2 -0.05 0.09zm-28.81 16.95l-9.99 10.16 4.07 -12.14 1.43 -0.23 1.35 -0.26 1.23 -0.28 1.15 -0.33 1.08 -0.35 0.98 -0.4 0.93 -0.41 0.83 -0.43 0.8 -0.43 0.74 -0.48 0.68 -0.51 0.65 -0.52 0.63 -0.55 0.61 -0.58 0.56 -0.58 0.55 -0.63 0.54 -0.68 0.49 -0.68 0.5 -0.73 0.49 -0.77 0.49 -0.78 0.47 -0.83 0.45 -0.84 0.46 -0.91 0.47 -0.91 0.46 -0.92 0.44 -0.98 0.48 -0.98 0.47 -1.01 0.47 -1.04 0.51 -1.03 0.51 -1.05 12.78 6.25 -0.46 0.94 -0.44 0.98 -0.47 0.98 -0.48 1 -0.47 1.04 -0.51 1.04 -0.51 1.08 -0.53 1.08 -0.57 1.08 -0.61 1.12 -0.64 1.11 -0.66 1.12 -0.71 1.1 -0.77 1.12 -0.84 1.13 -0.87 1.07 -0.94 1.08 -1.01 1.08 -1.05 1.03 -1.13 0.99 -1.21 0.96 -1.3 0.91 -1.35 0.87 -1.41 0.82 -1.51 0.76 -1.54 0.7 -1.65 0.62 -1.69 0.57 -1.77 0.5 -1.84 0.45 -1.9 0.36 -1.99 0.29 4.07 -12.14zm-9.99 10.16l-10.44 -10.22 14.51 -1.92 -4.07 12.14zm19.79 32.94l-14.01 -2.68 -0.03 0.2 0.19 -1.15 0.19 -1.12 0.23 -1.12 0.2 -1.09 0.16 -1.07 0.19 -1.04 0.19 -1.04 0.14 -0.99 0.15 -0.99 0.1 -0.97 0.08 -0.94 0.08 -0.91 0.05 -0.93 0.01 -0.89 -0.02 -0.88 -0.07 -0.85 -0.09 -0.85 -0.1 -0.84 -0.16 -0.81 -0.19 -0.84 -0.25 -0.83 -0.28 -0.83 -0.32 -0.87 -0.4 -0.84 -0.44 -0.88 -0.52 -0.92 -0.6 -0.93 -0.68 -0.96 -0.75 -0.97 -0.84 -1.01 -0.94 -1.02 -1.06 -1.08 9.99 -10.16 1.4 1.42 1.33 1.46 1.23 1.46 1.14 1.47 1.01 1.47 0.94 1.48 0.85 1.48 0.78 1.49 0.68 1.52 0.6 1.48 0.5 1.5 0.42 1.49 0.35 1.46 0.28 1.48 0.21 1.45 0.14 1.42 0.07 1.4 0.03 1.38 -0.02 1.34 -0.05 1.32 -0.08 1.3 -0.13 1.28 -0.16 1.25 -0.15 1.21 -0.2 1.21 -0.18 1.16 -0.19 1.15 -0.22 1.12 -0.2 1.1 -0.17 1.06 -0.19 1.06 -0.19 1.04 -0.03 0.19zm0.03 -0.19l-0.03 0.19 -0.02 0.15 0.05 -0.34zm16.4 45.24l-13.62 -4.24 2.57 7.84 -1.29 -1.01 -1.26 -1.06 -1.18 -1.12 -1.17 -1.21 -1.14 -1.24 -1.1 -1.29 -1.04 -1.35 -1.02 -1.36 -0.99 -1.45 -0.94 -1.48 -0.91 -1.5 -0.87 -1.56 -0.82 -1.6 -0.8 -1.64 -0.74 -1.63 -0.68 -1.69 -0.66 -1.71 -0.61 -1.73 -0.54 -1.75 -0.5 -1.79 -0.45 -1.81 -0.4 -1.82 -0.32 -1.82 -0.26 -1.82 -0.21 -1.86 -0.16 -1.85 -0.06 -1.88 -0.01 -1.84 0.06 -1.86 0.15 -1.87 0.22 -1.86 0.31 -1.87 14.01 2.68 -0.2 1.2 -0.16 1.24 -0.09 1.26 -0.06 1.3 0 1.34 0.07 1.32 0.09 1.35 0.16 1.35 0.21 1.38 0.26 1.38 0.29 1.37 0.33 1.36 0.39 1.34 0.43 1.36 0.45 1.35 0.49 1.32 0.57 1.29 0.57 1.3 0.58 1.24 0.65 1.21 0.65 1.18 0.68 1.16 0.71 1.09 0.72 1.05 0.74 1.04 0.76 0.95 0.77 0.9 0.75 0.85 0.78 0.77 0.79 0.72 0.75 0.67 0.74 0.57 2.56 7.84zm-2.56 -7.84l4.07 3.03 -1.51 4.81 -2.56 -7.84zm12.9 46.53l-10.05 10.1 0.08 0.08 -1.3 -1.31 -1.26 -1.36 -1.17 -1.45 -1.15 -1.47 -1.04 -1.51 -1.04 -1.55 -0.93 -1.6 -0.92 -1.6 -0.82 -1.66 -0.8 -1.69 -0.72 -1.69 -0.68 -1.71 -0.64 -1.76 -0.56 -1.74 -0.51 -1.76 -0.47 -1.77 -0.43 -1.77 -0.34 -1.78 -0.3 -1.8 -0.26 -1.77 -0.2 -1.79 -0.16 -1.75 -0.08 -1.76 -0.03 -1.75 0.02 -1.73 0.06 -1.7 0.14 -1.7 0.2 -1.7 0.24 -1.64 0.32 -1.65 0.39 -1.62 0.45 -1.57 13.62 4.24 -0.28 0.96 -0.23 1 -0.2 1.04 -0.19 1.14 -0.14 1.14 -0.08 1.2 -0.07 1.25 -0.02 1.28 0.04 1.3 0.08 1.32 0.1 1.36 0.15 1.35 0.19 1.37 0.25 1.36 0.29 1.38 0.31 1.38 0.36 1.38 0.4 1.37 0.45 1.35 0.47 1.31 0.51 1.32 0.56 1.3 0.58 1.25 0.65 1.21 0.63 1.21 0.71 1.15 0.7 1.11 0.77 1.07 0.76 1.02 0.83 0.94 0.82 0.92 0.85 0.86 0.09 0.09zm-0.09 -0.09l0.09 0.09 -0.12 -0.12 0.03 0.03zm6.47 32.95l6.98 12.45 -10.5 -7.51 0.23 -1.46 0.18 -1.38 0.11 -1.28 0.07 -1.22 -0.01 -1.17 -0.07 -1.07 -0.1 -1.03 -0.13 -0.94 -0.17 -0.93 -0.21 -0.87 -0.27 -0.83 -0.29 -0.79 -0.31 -0.78 -0.35 -0.74 -0.39 -0.73 -0.4 -0.73 -0.46 -0.7 -0.49 -0.72 -0.53 -0.7 -0.54 -0.7 -0.6 -0.72 -0.62 -0.69 -0.64 -0.7 -0.68 -0.72 -0.72 -0.73 -0.73 -0.73 -0.77 -0.74 -0.77 -0.74 -0.79 -0.77 -0.83 -0.79 -0.82 -0.8 -0.81 -0.8 10.05 -10.1 0.75 0.74 0.77 0.74 0.76 0.74 0.8 0.77 0.83 0.8 0.82 0.8 0.84 0.83 0.83 0.85 0.85 0.88 0.86 0.93 0.85 0.97 0.82 0.99 0.83 1.04 0.8 1.09 0.77 1.11 0.74 1.2 0.74 1.23 0.66 1.29 0.63 1.36 0.59 1.39 0.51 1.46 0.44 1.5 0.38 1.55 0.33 1.59 0.25 1.67 0.16 1.69 0.07 1.75 0 1.78 -0.06 1.83 -0.17 1.9 -0.23 1.93 -0.35 1.97 -10.49 -7.51zm6.98 12.45l-13.27 7.46 2.77 -14.97 10.5 7.51zm36.51 -8.74l-6.92 12.44 0.11 0.06 -1.02 -0.55 -1.01 -0.55 -0.95 -0.53 -0.96 -0.54 -0.92 -0.5 -0.94 -0.53 -0.88 -0.46 -0.89 -0.48 -0.87 -0.44 -0.85 -0.39 -0.84 -0.39 -0.84 -0.34 -0.8 -0.32 -0.82 -0.27 -0.81 -0.25 -0.79 -0.23 -0.79 -0.15 -0.81 -0.14 -0.8 -0.12 -0.79 -0.06 -0.82 -0.04 -0.87 0.03 -0.88 0.06 -0.9 0.14 -0.92 0.14 -0.99 0.22 -1.02 0.3 -1.09 0.36 -1.12 0.44 -1.18 0.52 -1.25 0.59 -1.28 0.72 -6.98 -12.45 1.79 -0.94 1.75 -0.87 1.74 -0.75 1.73 -0.66 1.7 -0.58 1.69 -0.47 1.66 -0.39 1.65 -0.31 1.63 -0.19 1.6 -0.11 1.54 -0.03 1.54 0.03 1.53 0.12 1.46 0.17 1.42 0.26 1.4 0.32 1.36 0.34 1.31 0.41 1.26 0.45 1.25 0.48 1.18 0.5 1.17 0.51 1.13 0.56 1.09 0.55 1.06 0.53 1.05 0.58 0.99 0.52 0.99 0.57 0.95 0.53 0.96 0.53 0.89 0.5 0.91 0.49 0.11 0.06zm-0.11 -0.06l0.11 0.06 0.16 0.09 -0.27 -0.15zm47.44 -1.94l-8.42 11.5 8.42 0 -1.34 0.94 -1.41 0.88 -1.43 0.81 -1.48 0.77 -1.53 0.71 -1.57 0.68 -1.58 0.6 -1.62 0.57 -1.66 0.49 -1.69 0.46 -1.71 0.42 -1.72 0.37 -1.76 0.3 -1.75 0.25 -1.8 0.21 -1.81 0.16 -1.79 0.09 -1.82 0.04 -1.8 -0.01 -1.83 -0.06 -1.82 -0.11 -1.82 -0.18 -1.83 -0.24 -1.8 -0.32 -1.8 -0.37 -1.79 -0.43 -1.79 -0.51 -1.74 -0.57 -1.73 -0.62 -1.74 -0.74 -1.66 -0.76 -1.63 -0.89 6.92 -12.44 1.07 0.54 1.11 0.55 1.12 0.45 1.18 0.46 1.23 0.4 1.23 0.34 1.29 0.32 1.3 0.26 1.35 0.21 1.33 0.18 1.37 0.13 1.38 0.11 1.38 0.06 1.41 0.01 1.37 -0.05 1.4 -0.08 1.36 -0.11 1.36 -0.15 1.36 -0.2 1.32 -0.25 1.32 -0.25 1.27 -0.31 1.24 -0.34 1.21 -0.39 1.17 -0.39 1.14 -0.44 1.07 -0.45 1.03 -0.49 0.97 -0.5 0.93 -0.53 0.85 -0.54 0.79 -0.55 8.42 0zm-8.42 0l4.21 -3.08 4.21 3.08 -8.42 0zm47.45 1.94l6.69 12.56 0.12 -0.06 -1.64 0.89 -1.67 0.76 -1.73 0.74 -1.73 0.62 -1.74 0.57 -1.79 0.51 -1.79 0.43 -1.8 0.37 -1.8 0.32 -1.83 0.24 -1.82 0.18 -1.82 0.11 -1.83 0.06 -1.8 0.01 -1.82 -0.04 -1.79 -0.09 -1.81 -0.16 -1.8 -0.21 -1.75 -0.25 -1.76 -0.3 -1.72 -0.37 -1.71 -0.42 -1.69 -0.46 -1.66 -0.49 -1.62 -0.57 -1.58 -0.6 -1.58 -0.68 -1.52 -0.71 -1.48 -0.77 -1.43 -0.81 -1.41 -0.88 -1.34 -0.94 8.42 -11.5 0.8 0.55 0.84 0.54 0.93 0.53 0.98 0.5 1.02 0.49 1.07 0.45 1.14 0.44 1.17 0.39 1.21 0.39 1.24 0.34 1.27 0.31 1.33 0.25 1.31 0.25 1.36 0.2 1.36 0.15 1.36 0.11 1.4 0.08 1.38 0.05 1.4 -0.01 1.38 -0.06 1.38 -0.11 1.37 -0.13 1.33 -0.18 1.35 -0.21 1.3 -0.26 1.29 -0.32 1.23 -0.34 1.23 -0.4 1.18 -0.46 1.12 -0.45 1.11 -0.55 1.07 -0.54 0.12 -0.06zm-0.12 0.06l0.12 -0.06 -0.28 0.15 0.16 -0.09zm33 3.8l14.01 -2.57 -10.5 7.51 -1.28 -0.72 -1.25 -0.59 -1.18 -0.52 -1.12 -0.44 -1.08 -0.36 -1.02 -0.3 -0.99 -0.22 -0.93 -0.14 -0.9 -0.14 -0.88 -0.06 -0.87 -0.03 -0.82 0.04 -0.79 0.06 -0.8 0.12 -0.81 0.14 -0.78 0.15 -0.8 0.23 -0.8 0.25 -0.82 0.27 -0.81 0.32 -0.84 0.34 -0.83 0.39 -0.86 0.39 -0.87 0.44 -0.89 0.48 -0.88 0.46 -0.93 0.53 -0.93 0.5 -0.96 0.54 -0.95 0.53 -1.01 0.55 -1.02 0.55 -6.69 -12.56 0.9 -0.49 0.9 -0.5 0.95 -0.53 0.96 -0.53 0.98 -0.57 0.99 -0.52 1.05 -0.58 1.06 -0.53 1.09 -0.55 1.13 -0.56 1.17 -0.51 1.18 -0.5 1.25 -0.48 1.26 -0.45 1.31 -0.41 1.36 -0.34 1.4 -0.32 1.42 -0.26 1.47 -0.17 1.52 -0.12 1.54 -0.03 1.54 0.03 1.6 0.11 1.63 0.19 1.65 0.31 1.66 0.39 1.69 0.47 1.7 0.58 1.73 0.66 1.74 0.75 1.75 0.87 1.79 0.94 -10.49 7.51zm14.01 -2.57l2.77 14.97 -13.27 -7.46 10.5 -7.51z"/>
   <path class="fil2 str0" d="M723.13 380.7c-3.46,-18.7 6.58,-25.75 14.9,-34.04 11.77,-11.29 16.27,-32.64 12.12,-45.86 10.91,-8.12 19.74,-28.05 16.62,-44.27 -1.9,-11.65 -5.89,-23.29 7.8,-36.69 -18.71,-2.47 -22.17,-14.46 -27.37,-25.05 -6.92,-14.81 -25.46,-25.93 -39.14,-25.93 -4.15,-13.05 -20.09,-27.87 -36.19,-29.81 -11.43,-1.76 -23.56,-1.41 -31.87,-18.87 -8.31,17.46 -20.44,17.11 -31.87,18.87 -16.1,1.94 -32.04,16.76 -36.19,29.81 -13.68,0 -32.22,11.12 -39.14,25.93 -5.2,10.59 -8.66,22.58 -27.37,25.05 13.68,13.4 9.7,25.04 7.8,36.69 -3.12,16.22 5.71,36.15 16.62,44.27 -4.15,13.22 0.35,34.57 12.13,45.86 8.31,8.29 18.35,15.34 14.89,34.04 16.63,-9.35 26.33,-1.77 36.54,3.7 14.2,7.94 35.51,5.65 46.59,-2.47 11.08,8.12 32.39,10.41 46.59,2.47 10.22,-5.47 19.92,-13.05 36.54,-3.7z"/>
   <path class="fil3" d="M566.94 337.39l2.12 1.59c-0.48,0.77 -0.67,1.48 -0.58,2.12 0.08,0.64 0.42,1.24 1.03,1.8 0.64,0.59 1.25,0.9 1.83,0.91 0.57,0.03 1.02,-0.14 1.35,-0.52 0.21,-0.24 0.32,-0.5 0.33,-0.79 0.01,-0.3 -0.1,-0.66 -0.33,-1.1 -0.16,-0.3 -0.57,-0.94 -1.22,-1.91 -0.83,-1.26 -1.29,-2.28 -1.37,-3.07 -0.12,-1.12 0.18,-2.08 0.88,-2.87 0.46,-0.52 1.03,-0.86 1.71,-1.05 0.68,-0.19 1.39,-0.15 2.14,0.11 0.75,0.26 1.5,0.74 2.26,1.44 1.25,1.14 1.93,2.28 2.08,3.41 0.13,1.13 -0.19,2.17 -0.98,3.13l-2.08 -1.74c0.37,-0.6 0.52,-1.14 0.44,-1.63 -0.09,-0.48 -0.41,-0.98 -0.97,-1.5 -0.58,-0.53 -1.15,-0.84 -1.69,-0.89 -0.35,-0.04 -0.64,0.07 -0.87,0.33 -0.21,0.24 -0.29,0.54 -0.25,0.89 0.07,0.45 0.48,1.24 1.25,2.36 0.76,1.13 1.27,2.03 1.52,2.71 0.24,0.67 0.3,1.35 0.19,2.03 -0.13,0.68 -0.47,1.33 -1.03,1.97 -0.51,0.58 -1.15,0.98 -1.91,1.19 -0.76,0.22 -1.54,0.19 -2.33,-0.1 -0.8,-0.28 -1.63,-0.82 -2.49,-1.61 -1.25,-1.15 -1.96,-2.33 -2.11,-3.53 -0.15,-1.21 0.21,-2.43 1.08,-3.68zm18.94 4.79l2.3 1.41 -3.71 6.3c-0.6,1 -0.95,1.67 -1.07,2 -0.18,0.54 -0.17,1.07 0.03,1.58 0.2,0.52 0.63,0.97 1.27,1.37 0.65,0.4 1.23,0.56 1.72,0.49 0.5,-0.06 0.89,-0.27 1.2,-0.63 0.3,-0.36 0.72,-1 1.26,-1.92l3.8 -6.44 2.31 1.41 -3.61 6.12c-0.82,1.4 -1.46,2.35 -1.93,2.85 -0.47,0.5 -0.98,0.84 -1.55,1.04 -0.57,0.19 -1.21,0.23 -1.9,0.12 -0.71,-0.1 -1.51,-0.44 -2.41,-0.99 -1.1,-0.67 -1.85,-1.3 -2.26,-1.91 -0.42,-0.6 -0.66,-1.2 -0.75,-1.81 -0.09,-0.61 -0.05,-1.18 0.12,-1.69 0.24,-0.76 0.74,-1.79 1.51,-3.09l3.67 -6.21zm10.28 21.68l4.78 -12.68 5.3 2.07c1.33,0.52 2.25,1.01 2.77,1.47 0.51,0.47 0.85,1.06 0.99,1.79 0.14,0.72 0.07,1.46 -0.21,2.21 -0.36,0.95 -0.93,1.63 -1.71,2.04 -0.79,0.4 -1.76,0.47 -2.91,0.2 0.42,0.54 0.74,1.07 0.95,1.59 0.21,0.53 0.42,1.4 0.65,2.62l0.59 3.07 -3.01 -1.18 -0.77 -3.47c-0.28,-1.24 -0.48,-2.03 -0.62,-2.38 -0.15,-0.35 -0.33,-0.62 -0.56,-0.82 -0.24,-0.2 -0.64,-0.41 -1.22,-0.64l-0.5 -0.2 -2 5.3 -2.52 -0.99zm5.28 -6.33l1.86 0.72c1.2,0.47 1.98,0.72 2.32,0.73 0.33,0.02 0.64,-0.07 0.91,-0.26 0.26,-0.19 0.47,-0.47 0.61,-0.85 0.16,-0.43 0.17,-0.82 0.05,-1.16 -0.12,-0.36 -0.38,-0.64 -0.76,-0.88 -0.19,-0.1 -0.8,-0.36 -1.82,-0.75l-1.96 -0.77 -1.21 3.22zm25.41 14.94l-2.9 -0.41 -0.73 -3.22 -5.29 -0.76 -1.5 2.9 -2.83 -0.4 7 -12.72 2.82 0.4 3.43 14.21zm-4.18 -6.02l-1.13 -5.26 -2.47 4.74 3.6 0.52zm12.14 7.28l-0.7 -13.57 2.69 -0.14 0.31 6.02 5.12 -6.31 3.62 -0.19 -4.74 5.55 5.71 8 -3.48 0.18 -3.99 -6.17 -2.06 2.38 0.21 4.1 -2.69 0.15zm31.47 -3.58l-2.9 0.47 -1.62 -2.87 -5.27 0.85 -0.61 3.23 -2.82 0.45 3.05 -14.24 2.81 -0.45 7.36 12.56zm-5.72 -4.51l-2.6 -4.69 -1 5.27 3.6 -0.58zm12.85 1.4l-4.78 -12.68 5.29 -2.07c1.33,-0.52 2.34,-0.78 3.03,-0.79 0.69,-0.01 1.33,0.21 1.91,0.65 0.58,0.44 1.01,1.03 1.29,1.78 0.36,0.96 0.39,1.85 0.07,2.68 -0.32,0.84 -0.99,1.55 -2.02,2.14 0.67,0.11 1.25,0.29 1.75,0.54 0.5,0.24 1.23,0.74 2.2,1.5l2.46 1.88 -3.01 1.17 -2.86 -2.05c-1.02,-0.73 -1.69,-1.18 -2.02,-1.34 -0.34,-0.17 -0.66,-0.24 -0.96,-0.24 -0.3,0.01 -0.74,0.13 -1.32,0.36l-0.51 0.19 2 5.3 -2.52 0.98zm-0.24 -8.3l1.85 -0.73c1.22,-0.47 1.95,-0.81 2.21,-1.04 0.26,-0.22 0.43,-0.49 0.5,-0.81 0.07,-0.32 0.04,-0.67 -0.1,-1.05 -0.16,-0.43 -0.41,-0.73 -0.73,-0.9 -0.32,-0.18 -0.7,-0.22 -1.13,-0.13 -0.22,0.05 -0.83,0.28 -1.85,0.68l-1.96 0.77 1.21 3.21zm20.62 -1.9l-5.87 -9.57 -3.35 2.13 -1.2 -1.95 8.99 -5.72 1.2 1.95 -3.35 2.13 5.87 9.57 -2.29 1.46zm19.64 -16.64l-2.18 2 -2.89 -1.5 -3.96 3.63 1.21 3.05 -2.12 1.94 -5.07 -13.63 2.12 -1.95 12.89 6.46zm-7.21 -0.61l-4.68 -2.5 1.97 4.98 2.71 -2.48z"/>
   <path class="fil3" d="M544.28 307.34l-1.15 -3.22 7.82 -2.89c0.87,-0.32 1.42,-0.72 1.67,-1.18 0.24,-0.47 0.23,-1.09 -0.04,-1.86 -0.27,-0.75 -0.65,-1.23 -1.13,-1.42 -0.49,-0.19 -1.16,-0.13 -2.02,0.19l-7.82 2.9 -1.16 -3.25 7.44 -2.76c1.04,-0.39 1.92,-0.59 2.62,-0.62 0.69,-0.02 1.34,0.13 1.95,0.45 0.62,0.33 1.17,0.79 1.63,1.38 0.46,0.58 0.84,1.29 1.14,2.13 0.3,0.84 0.46,1.63 0.47,2.38 0.02,0.75 -0.11,1.46 -0.38,2.13 -0.26,0.64 -0.67,1.19 -1.22,1.63 -0.55,0.45 -1.34,0.86 -2.38,1.25l-7.44 2.76zm7.13 -20.63l-13.2 1.89 -0.51 -3.72 3.99 -3.16c0.64,-0.52 1.29,-1.01 1.93,-1.48 0.64,-0.47 1.28,-0.92 1.91,-1.34 -0.99,0.19 -1.92,0.36 -2.79,0.51 -0.87,0.15 -1.64,0.27 -2.3,0.36l-3.38 0.49 -0.45 -3.32 13.19 -1.89 0.52 3.71 -4.1 3.28c-0.49,0.38 -1.03,0.8 -1.63,1.26 -0.6,0.46 -1.26,0.95 -1.96,1.46 0.85,-0.18 1.65,-0.35 2.38,-0.48 0.74,-0.14 1.39,-0.25 1.96,-0.33l3.98 -0.57 0.46 3.33zm-2.03 -17.28l-13.31 0.7 -0.18 -3.46 13.31 -0.71 0.18 3.47zm0.1 -12.46l-13.48 4.19 0.13 -3.68 6.91 -1.67c0.11,-0.02 0.3,-0.07 0.56,-0.13 0.83,-0.21 1.52,-0.36 2.08,-0.47 -0.27,-0.07 -0.58,-0.16 -0.95,-0.28 -0.36,-0.11 -0.84,-0.26 -1.43,-0.46l-6.99 -2.25 0.12 -3.66 13.16 5.16 -0.11 3.25zm1.73 -12.15l-12.93 -3.28 2.45 -10.01 2.65 0.68 -1.63 6.64 2.29 0.58 1.48 -6.07 2.59 0.66 -1.48 6.06 2.76 0.7 1.68 -6.85 2.64 0.67 -2.5 10.22zm-1.32 -21.38l1.15 -2.31c0.31,-0.62 0.43,-1.14 0.35,-1.55 -0.08,-0.41 -0.37,-0.74 -0.86,-1 -0.44,-0.23 -0.83,-0.25 -1.19,-0.08 -0.35,0.18 -0.67,0.56 -0.97,1.14l-1.19 2.39 2.71 1.41zm5.24 6.6l-11.87 -6.16 2.9 -5.79c0.76,-1.53 1.6,-2.52 2.49,-2.97 0.91,-0.45 1.92,-0.38 3.05,0.21 0.66,0.35 1.16,0.8 1.48,1.35 0.32,0.56 0.48,1.24 0.47,2.06 0.47,-0.42 0.93,-0.66 1.38,-0.7 0.45,-0.04 1.11,0.15 1.99,0.56 0.25,0.11 0.58,0.26 1,0.45 0.97,0.46 1.61,0.58 1.91,0.36l0.41 0.22 -1.62 3.24c-0.5,-0.06 -1.12,-0.26 -1.86,-0.62 -0.74,-0.36 -1.21,-0.58 -1.42,-0.65 -0.48,-0.19 -0.9,-0.21 -1.25,-0.05 -0.35,0.15 -0.66,0.5 -0.92,1.03l-1.04 2.07 4.44 2.31 -1.54 3.08zm3.51 -17.13l1.93 -2.69c0.63,0.43 1.22,0.59 1.78,0.47 0.56,-0.12 1.08,-0.51 1.55,-1.19 0.41,-0.57 0.63,-1.08 0.67,-1.53 0.04,-0.45 -0.11,-0.8 -0.44,-1.05 -0.18,-0.12 -0.35,-0.2 -0.54,-0.23 -0.19,-0.02 -0.37,0.01 -0.53,0.1 -0.25,0.12 -0.78,0.49 -1.58,1.12 -0.79,0.63 -1.49,1.13 -2.1,1.52 -0.87,0.56 -1.7,0.86 -2.5,0.9 -0.8,0.03 -1.53,-0.2 -2.2,-0.69 -1.03,-0.76 -1.57,-1.77 -1.62,-3 -0.04,-1.24 0.41,-2.53 1.37,-3.88 0.95,-1.32 2.01,-2.13 3.21,-2.44 1.19,-0.3 2.33,-0.05 3.42,0.76l-1.89 2.65c-0.54,-0.32 -1.05,-0.41 -1.5,-0.29 -0.45,0.13 -0.88,0.47 -1.29,1.04 -0.32,0.45 -0.49,0.89 -0.51,1.3 -0.02,0.42 0.11,0.74 0.4,0.95 0.48,0.35 1.41,0.01 2.79,-1.02 0.26,-0.19 0.45,-0.33 0.58,-0.43l0.12 -0.08c1.43,-1.07 2.41,-1.67 2.93,-1.82 0.54,-0.14 1.06,-0.16 1.58,-0.07 0.51,0.11 1,0.33 1.47,0.67 1.07,0.8 1.61,1.84 1.61,3.12 0,1.28 -0.54,2.67 -1.62,4.18 -1.01,1.43 -2.11,2.28 -3.28,2.55 -1.18,0.27 -2.44,-0.03 -3.81,-0.92zm13.41 -10.87l-9.9 -9.08 2.28 -2.58 9.9 9.08 -2.28 2.58zm8.39 -8.45l-7.11 -8.04 -2.83 2.6 -1.81 -2.04 8.21 -7.53 1.81 2.04 -2.84 2.6 7.11 8.04 -2.54 2.33zm9.1 -13.38l2.49 -1.53 -3.63 -3.23 1.14 4.76zm-4.46 -6.93l3.2 -1.95 10.89 9.16 -3.14 1.93 -1.95 -1.71 -3.82 2.34 0.61 2.53 -3.03 1.85 -2.76 -14.15zm15.83 1l3.08 -1.14c0.28,0.72 0.68,1.19 1.21,1.41 0.53,0.22 1.18,0.18 1.94,-0.1 0.65,-0.24 1.12,-0.54 1.4,-0.89 0.28,-0.35 0.35,-0.73 0.2,-1.12 -0.07,-0.21 -0.18,-0.37 -0.32,-0.5 -0.14,-0.12 -0.3,-0.2 -0.49,-0.22 -0.27,-0.04 -0.91,-0.03 -1.92,0.03 -1,0.07 -1.86,0.09 -2.58,0.07 -1.03,-0.03 -1.88,-0.26 -2.56,-0.69 -0.68,-0.42 -1.17,-1.03 -1.45,-1.82 -0.44,-1.22 -0.33,-2.36 0.3,-3.41 0.65,-1.05 1.74,-1.86 3.27,-2.43 1.51,-0.56 2.84,-0.63 4,-0.2 1.15,0.43 1.96,1.29 2.42,2.58l-3.02 1.12c-0.28,-0.57 -0.64,-0.94 -1.08,-1.09 -0.45,-0.16 -1,-0.12 -1.64,0.12 -0.52,0.19 -0.9,0.46 -1.14,0.79 -0.25,0.34 -0.31,0.68 -0.19,1.01 0.2,0.57 1.16,0.82 2.87,0.75 0.31,-0.01 0.55,-0.02 0.72,-0.03l0.14 0c1.77,-0.07 2.92,-0.01 3.43,0.16 0.52,0.19 0.97,0.47 1.34,0.85 0.37,0.37 0.66,0.84 0.85,1.39 0.46,1.27 0.33,2.44 -0.37,3.5 -0.7,1.06 -1.91,1.91 -3.64,2.55 -1.62,0.6 -3,0.68 -4.12,0.24 -1.12,-0.45 -2.01,-1.42 -2.65,-2.93zm24.84 -3.52l-0.7 -13.56 4.69 -0.25 2.09 6.51c0.19,0.57 0.36,1.13 0.51,1.67 0.16,0.54 0.3,1.07 0.42,1.59 0.09,-0.56 0.19,-1.15 0.3,-1.76 0.11,-0.61 0.25,-1.27 0.4,-1.97l1.33 -6.31 4.68 -0.25 0.7 13.56 -3.11 0.16 -0.31 -6.01c-0.02,-0.42 -0.04,-1.01 -0.06,-1.78 -0.02,-0.76 -0.03,-1.65 -0.04,-2.65l-2.02 10.57 -3.38 0.18 -3.04 -10.3c0.11,1.2 0.19,2.28 0.27,3.24 0.07,0.96 0.12,1.71 0.15,2.25l0.25 4.94 -3.13 0.17zm21.82 -13.33l3.32 0.53 -1.3 8.37c-0.14,0.93 -0.08,1.61 0.2,2.06 0.29,0.44 0.83,0.73 1.61,0.86 0.79,0.12 1.38,0.02 1.78,-0.32 0.4,-0.33 0.67,-0.96 0.81,-1.89l1.31 -8.37 3.35 0.54 -1.24 7.96c-0.18,1.13 -0.42,2 -0.74,2.64 -0.32,0.63 -0.76,1.14 -1.33,1.52 -0.59,0.39 -1.25,0.66 -1.97,0.79 -0.73,0.12 -1.52,0.12 -2.39,-0.02 -0.86,-0.14 -1.62,-0.39 -2.27,-0.74 -0.65,-0.35 -1.2,-0.8 -1.64,-1.36 -0.43,-0.55 -0.7,-1.18 -0.82,-1.89 -0.11,-0.7 -0.09,-1.61 0.09,-2.72l1.23 -7.96zm14.18 16.49l4.56 -12.75 3.22 1.2 -1.62 4.52 4.39 1.63 1.62 -4.53 3.22 1.2 -4.56 12.75 -3.22 -1.19 1.92 -5.38 -4.39 -1.63 -1.92 5.38 -3.22 -1.2zm22.04 4.23l2.48 1.57 1.17 -4.77 -3.65 3.2zm4.04 -7.19l3.16 2.02 -3.07 14.04 -3.11 -1.98 0.6 -2.55 -3.77 -2.4 -1.94 1.7 -3 -1.91 11.13 -8.92zm3.43 18.5l8.92 -10.09 3.49 3.2 -3.04 6.11c-0.27,0.54 -0.53,1.06 -0.8,1.55 -0.27,0.5 -0.54,0.97 -0.81,1.42 0.45,-0.33 0.93,-0.67 1.43,-1.02 0.51,-0.35 1.06,-0.72 1.65,-1.11l5.33 -3.5 3.48 3.2 -8.92 10.08 -2.31 -2.12 3.95 -4.47c0.28,-0.32 0.68,-0.75 1.2,-1.31 0.51,-0.55 1.12,-1.19 1.81,-1.9l-8.77 6.02 -2.52 -2.31 5.01 -9.47c-0.76,0.93 -1.45,1.75 -2.06,2.48 -0.61,0.73 -1.1,1.3 -1.45,1.7l-3.26 3.68 -2.33 -2.14zm14.99 13.79l10.92 -7.79 2.69 3.92 -4.3 5.25c-0.38,0.47 -0.76,0.91 -1.13,1.33 -0.37,0.42 -0.74,0.82 -1.1,1.2 0.51,-0.22 1.05,-0.44 1.62,-0.67 0.57,-0.22 1.19,-0.46 1.85,-0.7l5.96 -2.19 2.69 3.91 -10.92 7.78 -1.78 -2.59 4.84 -3.46c0.34,-0.24 0.82,-0.57 1.45,-0.99 0.63,-0.42 1.36,-0.9 2.19,-1.44l-9.88 3.86 -1.94 -2.83 6.97 -8.08c-0.94,0.73 -1.8,1.37 -2.56,1.95 -0.75,0.57 -1.35,1.01 -1.79,1.32l-3.98 2.84 -1.8 -2.62zm17.16 18.31l1.32 2.64 3.42 -3.47 -4.74 0.83zm7.09 -4.05l1.7 3.39 -9.74 10.43 -1.66 -3.33 1.8 -1.87 -2.02 -4.03 -2.52 0.43 -1.61 -3.21 14.05 -1.81zm-3.46 20.53l0.45 1.83c0.25,1.04 0.74,1.73 1.47,2.06 0.72,0.34 1.72,0.34 3.01,0.01 1.29,-0.32 2.18,-0.81 2.66,-1.45 0.48,-0.63 0.59,-1.48 0.34,-2.52l-0.45 -1.83 -7.48 1.9zm-3.54 -2.7l12.93 -3.28 1.37 5.62c0.48,1.95 0.29,3.59 -0.57,4.91 -0.86,1.32 -2.34,2.25 -4.42,2.78 -2.16,0.55 -3.91,0.42 -5.24,-0.39 -1.34,-0.8 -2.27,-2.29 -2.8,-4.46l-1.27 -5.18zm3.55 16.71l13.2 -1.89 0.47 3.44 -13.2 1.89 -0.47 -3.44zm0.83 12.54l5.01 0.18 8.46 -4.39 -0.13 3.89 -5.46 2.31 5.29 2.67 -0.14 3.93 -8.13 -5.03 -5.02 -0.18 0.12 -3.38zm3.74 15.81l-0.45 2.93 4.77 -0.76 -4.32 -2.17zm8.07 0.97l-0.58 3.75 -13.9 2.61 0.58 -3.68 2.54 -0.43 0.69 -4.48 -2.29 -1.16 0.55 -3.55 12.41 6.94zm-15.76 10.35l12.52 4.64 -1.17 3.28 -4.45 -1.64 -1.59 4.47 4.44 1.64 -1.17 3.29 -12.52 -4.65 1.17 -3.28 5.28 1.96 1.59 -4.47 -5.27 -1.96 1.17 -3.28z"/>
   <path class="fil3" d="M557.79 327.48c-3.19,0 -5.78,-2.64 -5.78,-5.89 0,-3.24 2.59,-5.88 5.78,-5.88 3.19,0 5.78,2.64 5.78,5.88 0,3.25 -2.59,5.89 -5.78,5.89z"/>
   <path class="fil3" d="M721.39 327.48c-3.19,0 -5.78,-2.64 -5.78,-5.89 0,-3.24 2.59,-5.88 5.78,-5.88 3.19,0 5.77,2.64 5.77,5.88 0,3.25 -2.58,5.89 -5.77,5.89z"/>
   <path class="fil4" d="M628.5 275.77l0.62 0.52 -10.88 11.87 -1.23 -1.08 11.49 -11.31zm-0.96 -1.13l0.5 0.65 -14.26 13.59 -2.96 -0.16 16.72 -14.08zm-0.85 -1.28l0.43 0.68 -19.07 15.28 -3.96 -0.24 22.6 -15.72zm-29.67 14.72l28.87 -16.04 0.42 0.8 -27.79 18.01 -2.81 -0.16 1.31 -2.61zm28.6 -16.64l-0.35 -0.73 -22.26 9.55 -1.76 3.69 24.37 -12.51zm-0.62 -1.41l-0.27 -0.8 -18.45 6.1 -1.34 2.72 20.06 -8.02zm32.14 -10.71l-0.31 -0.8 15.15 -4.57 0.57 1.6 -15.41 3.77zm-28.18 -8.5l-0.46 0.68 -11.38 -11.39 1.04 -1.32 10.8 12.03zm1.12 -1l-0.62 0.52 -13.03 -14.88 0.15 -3.09 13.5 17.45zm1.23 -0.92l-0.69 0.44 -14.61 -19.9 0.23 -4.13 15.07 23.59zm-14.15 -30.97l15.42 30.16 -0.77 0.44 -17.26 -28.99 0.15 -2.93 2.46 1.32zm15.99 29.88l0.7 -0.4 -9.15 -23.18 -3.54 -1.88 11.99 25.46zm1.35 -0.68l0.73 -0.28 -5.81 -19.25 -2.61 -1.4 7.69 20.93zm22.45 21.34l0.11 -0.84 15.34 3.93 -0.31 1.68 -15.14 -4.77zm-0.46 1.48l0.27 -0.8 18.45 6.1 1.34 2.68 -20.06 -7.98zm-0.62 1.41l0.35 -0.73 22.22 9.55 1.8 3.69 -24.37 -12.51zm27.1 19.37l-27.83 -18.01 0.46 -0.76 28.87 16.04 1.27 2.61 -2.77 0.12zm-28.18 -17.45l-0.42 0.68 19.07 15.24 3.96 -0.2 -22.61 -15.72zm-0.84 1.28l-0.54 0.65 14.3 13.55 2.92 -0.16 -16.68 -14.04zm-8.53 -27.95l-0.81 -0.12 3.73 -16 1.61 0.28 -4.53 15.84zm1.38 0.48l-0.73 -0.28 5.8 -19.25 2.66 -1.4 -7.73 20.93zm1.34 0.64l-0.69 -0.36 9.19 -23.22 3.54 -1.85 -12.04 25.43zm18.65 -28.27l-17.3 29.03 -0.77 -0.48 15.45 -30.12 2.47 -1.36 0.15 2.93zm-16.8 29.4l0.69 0.44 14.65 -19.9 -0.23 -4.13 -15.11 23.59zm1.23 0.88l0.61 0.56 13.08 -14.92 -0.16 -3.05 -13.53 17.41zm-6.5 30.92l0.77 -0.32 4.42 15.8 -1.54 0.6 -3.65 -16.08zm-1.42 0.32l0.77 -0.16 4.19 19.73 -1.61 2.57 -3.35 -22.14zm-1.5 0.12l0.81 -0.04 3.15 24.91 -2.19 3.45 -1.77 -28.32zm-2.57 34.21l1.07 -34.13 0.89 0 1.07 34.13 -1.5 2.49 -1.53 -2.49zm0.46 -34.21l-0.81 -0.04 -3.15 24.91 2.19 3.45 1.77 -28.32zm-1.5 -0.12l-0.77 -0.16 -4.19 19.73 1.61 2.57 3.35 -22.14zm14.22 -4.73l0.5 -0.64 11.42 11.39 -1.08 1.28 -10.84 -12.03zm-1.08 1.04l0.58 -0.56 13.07 14.92 -0.15 3.05 -13.5 -17.41zm-1.22 0.88l0.65 -0.44 14.65 19.9 -0.2 4.13 -15.1 -23.59zm14.14 30.97l-15.41 -30.12 0.73 -0.49 17.3 29.04 -0.12 2.93 -2.5 -1.36zm-15.99 -29.84l-0.69 0.36 9.15 23.18 3.57 1.88 -12.03 -25.42zm-1.38 0.64l-0.74 0.28 5.85 19.25 2.61 1.4 -7.72 -20.93zm-22.57 -12.15l0.31 0.8 -15.19 4.57 -0.53 -1.6 15.41 -3.77zm28.6 -16.45l-0.65 -0.52 10.92 -11.91 1.26 1.08 -11.53 11.35zm0.96 1.13l-0.5 -0.65 14.27 -13.59 2.96 0.16 -16.73 14.08zm0.89 1.28l-0.43 -0.68 19.07 -15.32 3.96 0.24 -22.6 15.76zm29.67 -14.76l-28.91 16.08 -0.42 -0.76 27.8 -18.05 2.8 0.12 -1.27 2.61zm-28.63 16.68l0.38 0.73 22.22 -9.59 1.8 -3.69 -24.4 12.55zm0.65 1.41l0.27 0.8 18.45 -6.1 1.31 -2.72 -20.03 8.02zm-20.49 23.38l0.84 0.16 -3.76 15.96 -1.62 -0.28 4.54 -15.84zm-1.38 -0.44l0.76 0.28 -5.84 19.25 -2.58 1.37 7.66 -20.9zm-1.35 -0.68l0.69 0.4 -9.15 23.18 -3.53 1.84 11.99 -25.42zm-18.61 28.27l17.3 -28.99 0.73 0.44 -15.38 30.16 -2.49 1.32 -0.16 -2.93zm16.76 -29.4l-0.65 -0.44 -14.65 19.9 0.23 4.17 15.07 -23.63zm-1.23 -0.88l-0.61 -0.52 -12.99 14.88 0.15 3.09 13.45 -17.45zm6.5 -30.92l-0.77 0.32 -4.42 -15.8 1.54 -0.6 3.65 16.08zm1.42 -0.32l-0.77 0.16 -4.19 -19.69 1.62 -2.61 3.34 22.14zm1.5 -0.12l-0.77 0.04 -3.19 -24.87 2.19 -3.49 1.77 28.32zm2.58 -34.21l-1.08 34.17 -0.84 0 -1.12 -34.17 1.54 -2.45 1.5 2.45zm-0.46 34.21l0.8 0.04 3.16 -24.87 -2.16 -3.49 -1.8 28.32zm1.5 0.12l0.8 0.16 4.15 -19.69 -1.61 -2.61 -3.34 22.14zm-18.72 12.55l-0.12 0.84 -15.34 -3.93 0.31 -1.64 15.15 4.73zm0.46 -1.44l-0.27 0.76 -18.45 -6.06 -1.35 -2.76 20.07 8.06zm0.65 -1.41l-0.39 0.73 -22.21 -9.59 -1.81 -3.69 24.41 12.55zm-27.1 -19.45l27.79 18.05 -0.42 0.8 -28.91 -16.12 -1.27 -2.61 2.81 -0.12zm28.14 17.53l0.42 -0.72 -19.07 -15.28 -3.96 0.24 22.61 15.76zm0.88 -1.28l0.5 -0.65 -14.26 -13.63 -2.96 0.16 16.72 14.12z"/>
   <path class="fil2" d="M640.69 285.39c11.49,0 20.87,-9.78 20.87,-21.77 0,-12 -9.38,-21.78 -20.87,-21.78 -11.5,0 -20.88,9.78 -20.88,21.78 0,11.99 9.38,21.77 20.88,21.77zm0 9.63c16.56,0 30.13,-14.08 30.13,-31.4 0,-17.33 -13.57,-31.45 -30.13,-31.45 -16.57,0 -30.14,14.12 -30.14,31.45 0,17.32 13.57,31.4 30.14,31.4z"/>
   <path class="fil4" d="M657.36 260.84l-0.11 -0.81 18.83 -4.33 2.5 1.65 -21.22 3.49zm0.12 1.52l-0.04 -0.8 23.83 -3.25 3.35 2.25 -27.14 1.8zm32.79 2.69l-32.76 -1.13 0 -0.88 32.76 -1.12 2.34 1.56 -2.34 1.57zm-32.91 1.12l-0.11 0.8 18.83 4.33 2.5 -1.64 -21.22 -3.49zm0.12 -1.56l-0.04 0.8 23.83 3.29 3.35 -2.25 -27.14 -1.84zm-33.56 1.64l0.11 0.84 -18.87 4.33 -2.46 -1.68 21.22 -3.49zm-0.16 -1.52l0.04 0.8 -23.83 3.29 -3.31 -2.25 27.1 -1.84zm0.16 -3.81l0.11 -0.77 -18.87 -4.37 -2.46 1.69 21.22 3.45zm-0.16 1.56l0.04 -0.8 -23.83 -3.29 -3.31 2.29 27.1 1.8zm-32.75 -0.48l32.71 1.12 0 0.92 -32.71 1.13 -2.38 -1.57 2.38 -1.6z"/>
   <path class="fil3" d="M665.88 254.91c0.54,0.36 0.84,0.6 0.88,0.68 0,0 -0.04,0.04 -0.08,0.04l-0.84 0.25 -2.46 0.6c-0.31,0.08 -0.5,0.12 -0.58,0.12 -0.07,0 -0.11,0 -0.11,-0.04 -0.04,-0.04 0,-0.08 0.04,-0.12 0.03,-0.04 0.42,-0.24 1.11,-0.56l2.04 -0.97zm1.3 0.6c0.04,0.04 0.04,0.04 0.04,0.08 0.04,0.04 0,0.04 0,0.08 0,0 -0.07,0 -0.15,0.04 -0.08,0 -0.12,-0.04 -0.16,-0.08l-0.69 -0.84c-0.03,-0.08 -0.07,-0.12 -0.07,-0.16 0,0 0,-0.04 0.04,-0.04l0.15 -0.04c0.04,0 0.11,0.04 0.19,0.12l0.65 0.84zm-2.61 -3.16l-0.19 0.56 0.5 0.2 -0.19 0.6 -0.58 -0.24 0.19 -0.52 -0.5 -0.2 0.19 -0.6 0.58 0.2zm0.96 0.04l-0.23 0.56 -0.58 -0.2 0.23 -0.6 0.58 0.24zm0.31 -1.69c-0.04,-0.04 -0.08,-0.08 -0.15,-0.08 -0.04,-0.04 -0.12,-0.04 -0.2,0 -0.11,0.08 -0.15,0.2 -0.03,0.44 0.03,0.08 0.07,0.16 0.11,0.2 0.04,0.04 0.08,0.08 0.12,0.04 0.03,0 0.11,-0.08 0.15,-0.24 0.04,-0.12 0.04,-0.24 0,-0.36zm0.35 0.04c0.07,0.16 0.07,0.28 0,0.44 -0.08,0.12 -0.2,0.24 -0.31,0.28 -0.19,0.08 -0.35,0.08 -0.54,0 -0.15,-0.08 -0.27,-0.2 -0.35,-0.36 -0.04,-0.12 -0.04,-0.24 0,-0.32 0.08,-0.12 0.2,-0.24 0.31,-0.28 0.19,-0.08 0.35,-0.12 0.54,-0.08 0.15,0.04 0.27,0.12 0.35,0.32zm-8.04 -2.61c-0.15,0.2 -0.23,0.45 -0.23,0.69 0.04,0.24 0.11,0.44 0.23,0.6 0.04,0.08 0.12,0.12 0.19,0.16 0.04,0 0.08,0 0.12,-0.04 0.04,0 0.04,-0.12 0.08,-0.28 0,-0.16 0,-0.4 -0.04,-0.68l-0.35 -0.45zm0.73 -0.56l0.38 0.48c0.31,0.08 0.5,0.04 0.62,-0.04 0.12,-0.12 0.12,-0.2 0.04,-0.36 -0.12,-0.12 -0.23,-0.16 -0.42,-0.2 -0.2,0 -0.39,0 -0.62,0.12zm3.54 -1.68c0,0 0.04,0.04 0.04,0.04 0.03,0.04 0.03,0.04 0,0.08 0,0 -0.04,0.04 -0.12,0.08 -0.04,0.04 -0.11,0.04 -0.15,0l-0.96 -0.6c-0.04,-0.04 -0.12,-0.08 -0.12,-0.08 0,-0.04 0,-0.04 0.04,-0.08l0.11 -0.08c0.04,-0.04 0.12,-0.04 0.24,0.04l0.92 0.6zm-5.92 -6.02c0.11,-0.04 0.19,-0.08 0.23,-0.16 0.04,-0.04 0.04,-0.12 0.04,-0.16 0,-0.04 0,-0.08 -0.04,-0.12 -0.08,-0.08 -0.16,-0.04 -0.23,0.08 -0.08,0.12 -0.08,0.24 0,0.36zm0.23 0.28c-0.08,0.08 -0.16,0.16 -0.23,0.24l0 0.04c-0.08,-0.08 -0.16,-0.16 -0.23,-0.28 -0.43,0.16 -0.77,0.12 -1.08,-0.12 -0.04,-0.04 -0.04,-0.04 -0.04,-0.08 0.04,-0.04 0.12,-0.04 0.23,0 0.27,0.04 0.54,0.04 0.73,0 -0.04,-0.08 -0.07,-0.16 -0.07,-0.24 0,-0.08 0.03,-0.16 0.07,-0.24 0.12,-0.12 0.27,-0.24 0.46,-0.28 0.2,-0.04 0.35,-0.04 0.47,0.04 0.03,0.08 0.07,0.12 0.07,0.24 0,0.08 -0.04,0.16 -0.11,0.28 -0.08,0.12 -0.2,0.2 -0.39,0.28 0.04,0.04 0.08,0.08 0.12,0.12zm-4.39 -1.4c0.66,-0.12 1.04,-0.16 1.08,-0.16 0.04,0.04 0.04,0.04 0,0.08l-0.5 0.84 -1.34 2.21c-0.16,0.28 -0.27,0.44 -0.31,0.52 -0.08,0.04 -0.12,0.04 -0.15,0.04 -0.04,0 -0.04,-0.08 -0.04,-0.12 0,-0.08 0.15,-0.48 0.42,-1.24l0.84 -2.17zm1.39 -0.52c0.04,0 0.04,0 0.08,0.04 0,0 0.03,0.04 0,0.04 0,0 -0.04,0.08 -0.08,0.16 -0.04,0.04 -0.08,0.08 -0.15,0.04l-1.08 -0.12c-0.08,-0.04 -0.11,-0.04 -0.16,-0.04 0,-0.04 -0.03,-0.04 0,-0.08l0.08 -0.16c0.04,-0.04 0.12,-0.04 0.23,-0.04l1.08 0.16zm-3.42 0.96c0.08,0 0.11,0.2 0.15,0.6 0.08,0.36 0,0.8 -0.15,1.29 -0.43,1.24 -1.23,1.64 -2.5,1.2 -0.54,-0.2 -0.92,-0.44 -1.15,-0.8 -0.2,-0.32 -0.23,-0.73 -0.08,-1.21 0.08,-0.24 0.23,-0.52 0.38,-0.76 0.2,-0.28 0.35,-0.36 0.43,-0.36 0.04,0.04 0.04,0.04 0.04,0.12 -0.04,0 -0.08,0.08 -0.12,0.2 -0.15,0.2 -0.23,0.36 -0.27,0.44 -0.19,0.64 0.15,1.08 1.04,1.41 0.5,0.2 0.96,0.28 1.3,0.24 0.35,-0.04 0.54,-0.16 0.62,-0.4 0.08,-0.2 0,-0.65 -0.31,-1.25 0,-0.08 -0.03,-0.12 0,-0.16 0,0 0.04,-0.08 0.16,-0.16 0.07,-0.08 0.19,-0.16 0.31,-0.28 0.07,-0.08 0.15,-0.16 0.15,-0.12zm-0.96 -1.04l0.27 0.56 -0.54 0.28 -0.27 -0.56 0.54 -0.28zm-0.77 -2.57c-0.08,-0.04 -0.12,0 -0.19,0 -0.04,0.04 -0.08,0.12 -0.12,0.2 -0.04,0.12 0.04,0.24 0.27,0.32 0.08,0.04 0.15,0.04 0.23,0.04 0.08,0 0.12,0 0.12,-0.04 0,-0.08 0,-0.16 -0.08,-0.28 -0.08,-0.12 -0.15,-0.2 -0.23,-0.24zm0.27 -0.28c0.15,0.04 0.23,0.12 0.27,0.28 0.07,0.16 0.03,0.32 0,0.48 -0.08,0.2 -0.19,0.32 -0.39,0.4 -0.15,0.04 -0.34,0.08 -0.46,0 -0.11,-0.04 -0.19,-0.12 -0.23,-0.24 -0.04,-0.12 -0.04,-0.24 0,-0.4 0.08,-0.2 0.15,-0.32 0.31,-0.44 0.15,-0.12 0.31,-0.16 0.5,-0.08zm-5.08 3.49c-0.27,0.12 -0.61,0.2 -1,0.32 0.08,0.04 0.19,0.08 0.35,0.08 0.19,0.04 0.35,0.04 0.5,0.04 0.15,-0.04 0.23,-0.08 0.23,-0.12 0,-0.08 0,-0.2 -0.08,-0.32zm-1.11 -2.01c-0.08,0.16 -0.12,0.25 -0.16,0.25 -0.03,0 -0.07,-0.09 -0.11,-0.21l-0.15 -0.36 -0.04 -0.04c-0.04,-0.08 -0.04,-0.12 -0.04,-0.16 0,0 0.11,-0.2 0.31,-0.56 0,-0.04 0,-0.04 0.03,-0.08 0.04,-0.08 0.08,-0.16 0.12,-0.12 0.08,0 0.27,0.28 0.62,0.84 0.34,0.56 0.57,1.21 0.76,1.97 0.27,-0.28 0.47,-0.64 0.5,-1 0.04,-0.21 0.04,-0.45 0,-0.73 0,-0.08 0,-0.12 0,-0.12 0,-0.08 0.04,-0.16 0.16,-0.28l0.19 -0.2c0,-0.04 0.04,-0.04 0.04,-0.04 0.04,-0.08 0.07,-0.12 0.11,-0.12 0,0 0.04,0.08 0.08,0.16 0.04,0.08 0.08,0.12 0.08,0.16l0.23 0.44 0.04 0.04c0.03,0.08 0.03,0.16 0.03,0.16 0,0.04 -0.03,0.04 -0.07,0.04 -0.04,0 -0.12,-0.04 -0.23,-0.04 -0.12,0.77 -0.46,1.37 -1.08,1.81 0.04,0.24 0.08,0.44 0.04,0.56 -0.04,0.2 -0.08,0.36 -0.19,0.48 -0.12,0.08 -0.31,0.16 -0.54,0.24 -0.27,0.04 -0.58,0.04 -0.89,-0.04 -0.15,0 -0.23,-0.04 -0.26,-0.04 -0.04,-0.04 -0.08,-0.08 -0.08,-0.12 0,-0.04 0.08,-0.16 0.15,-0.32 0.12,-0.2 0.19,-0.36 0.27,-0.48 0.46,-0.08 0.81,-0.2 1.08,-0.36 -0.27,-0.72 -0.62,-1.33 -1,-1.73zm1.04 -3.12c0.04,0 0.04,0 0.07,0 0.04,0 0.04,0 0.04,0.04 0,0 0,0.08 -0.04,0.16 0,0.08 -0.03,0.12 -0.11,0.12l-1.08 0.24c-0.08,0 -0.11,0.04 -0.15,0.04 0,-0.04 -0.04,-0.04 0,-0.08l0.04 -0.16c0,-0.04 0.03,-0.08 0.15,-0.12l1.08 -0.24zm-4.62 2.32c0.54,-0.48 0.81,-0.72 0.89,-0.72 0,0 0.03,0 0.03,0.04l-0.03 1 -0.12 2.65c0,0.28 -0.04,0.48 -0.04,0.56 -0.04,0.08 -0.04,0.12 -0.11,0.12 0,0 -0.04,0 -0.08,-0.08 -0.04,-0.04 -0.07,-0.48 -0.19,-1.28l-0.35 -2.29zm1.08 4.49c0.04,0 0.08,-0.04 0.08,-0.04 0.04,0 0.07,0.04 0.07,0.04 0,0.04 0,0.08 -0.03,0.2 0,0.04 0,0.08 -0.08,0.12l-1 0.45c-0.08,0 -0.16,0.04 -0.16,0.04 -0.03,0 -0.03,-0.04 -0.03,-0.04l0 -0.2c0,-0.05 0.03,-0.08 0.15,-0.12l1 -0.45zm-5.38 -5.05c0,-0.04 0.03,-0.04 0.07,-0.04 0,0 0.04,0 0.04,0.04 0,0 0,0.04 0.04,0.16 0,0.04 -0.04,0.12 -0.08,0.16l-0.92 0.6c-0.08,0.04 -0.11,0.08 -0.15,0.08 0,0 -0.04,0 -0.04,-0.04l0 -0.16c0,-0.08 0.04,-0.12 0.11,-0.2l0.93 -0.6zm-3.69 4.69c0.23,0.04 0.54,0.04 0.88,-0.08 -0.19,-0.36 -0.34,-0.56 -0.38,-0.68 -0.23,0.32 -0.39,0.56 -0.5,0.76zm-0.54 -3.45c0,0 0.04,0 0.04,-0.04 0.04,0 0.07,0 0.07,0.04 0,0 0,0.04 0.04,0.16 0.04,0.04 0,0.12 -0.04,0.16l-0.8 0.77c-0.08,0.04 -0.12,0.08 -0.16,0.08 0,0.04 -0.04,0 -0.04,0l-0.03 -0.2c0,-0.04 0,-0.08 0.11,-0.16l0.81 -0.81zm-3.54 3.09c0.23,-0.64 0.39,-1 0.46,-1.04 0,0 0.04,0 0.04,0.04l0.42 0.88 1.08 2.41c0.16,0.28 0.23,0.44 0.23,0.52 0.04,0.08 0.04,0.12 0,0.16 -0.04,0 -0.07,0 -0.15,-0.04 -0.04,-0.04 -0.27,-0.4 -0.73,-1.04l-1.35 -1.89zm3 3.45c0,0 0.04,-0.04 0.04,-0.04 0.04,-0.04 0.04,0 0.08,0 0,0 0,0.08 0.07,0.16 0,0.04 0,0.12 -0.04,0.16l-0.69 0.88c-0.07,0.04 -0.11,0.08 -0.11,0.12 -0.04,0 -0.04,0 -0.08,-0.04l-0.04 -0.16c-0.04,-0.04 0,-0.12 0.04,-0.2l0.73 -0.88zm-3.5 0.08c-0.11,0.28 -0.27,0.6 -0.5,0.96 0.08,-0.04 0.16,-0.08 0.31,-0.2 0.15,-0.12 0.27,-0.24 0.38,-0.36 0.08,-0.12 0.12,-0.2 0.08,-0.2 -0.04,-0.08 -0.15,-0.16 -0.27,-0.2zm-2.15 -0.64c0.08,0.16 0.08,0.28 0.04,0.28 0,0.04 -0.08,0.04 -0.19,-0.04l-0.35 -0.12 -0.08 -0.04c-0.07,-0.04 -0.11,-0.04 -0.11,-0.08 0,0 -0.08,-0.24 -0.16,-0.64 0,0 0,-0.04 -0.03,-0.04 -0.04,-0.12 0,-0.2 0,-0.24 0.07,0 0.38,0.04 0.99,0.2 0.66,0.16 1.27,0.44 1.89,0.84 0,-0.4 -0.12,-0.76 -0.31,-1.08 -0.11,-0.16 -0.27,-0.32 -0.46,-0.48 -0.08,-0.08 -0.11,-0.08 -0.11,-0.12 -0.04,-0.04 -0.04,-0.16 -0.04,-0.33l-0.04 -0.28c0,0 0,-0.04 0,-0.04 0,-0.08 0,-0.12 0.04,-0.16 0,0 0.07,0 0.15,0.04 0.08,0.04 0.12,0.04 0.15,0.04l0.47 0.2 0.03 0c0.12,0.04 0.16,0.04 0.16,0.08 0.04,0 0,0.04 -0.04,0.08 -0.04,0.04 -0.12,0.08 -0.19,0.13 0.42,0.64 0.57,1.32 0.46,2.08 0.15,0.12 0.31,0.24 0.38,0.4 0.12,0.16 0.19,0.32 0.16,0.44 0,0.16 -0.08,0.36 -0.23,0.56 -0.16,0.24 -0.39,0.44 -0.66,0.65 -0.07,0.08 -0.15,0.16 -0.23,0.16 -0.04,0 -0.08,0 -0.11,-0.04 0,-0.04 -0.04,-0.16 -0.08,-0.36 -0.08,-0.2 -0.12,-0.41 -0.15,-0.53 0.26,-0.36 0.46,-0.72 0.57,-1.04 -0.73,-0.32 -1.38,-0.48 -1.92,-0.52zm-0.27 -2.21c0,0.04 0,0.08 0,0.12 0,0.2 -0.04,0.32 -0.12,0.41 -0.07,0.03 -0.15,0.03 -0.23,0.03 -0.07,-0.03 -0.15,-0.07 -0.23,-0.2 -0.15,-0.2 -0.19,-0.32 -0.11,-0.36 0.04,-0.04 0.08,0 0.11,0.08 0.12,0.12 0.2,0.12 0.27,0.08 0.08,-0.08 0.08,-0.24 -0.04,-0.44 -0.07,-0.16 -0.07,-0.2 -0.07,-0.24 0.04,-0.04 0.11,0 0.15,0.08 0.12,0.08 0.19,0.12 0.27,0.04 0.08,-0.04 0.08,-0.2 -0.08,-0.4 -0.07,-0.12 -0.07,-0.2 -0.07,-0.24 0.07,-0.04 0.19,0.08 0.38,0.32 0.08,0.12 0.12,0.28 0.12,0.4 0,0.16 -0.04,0.24 -0.12,0.32 -0.07,0.04 -0.15,0.04 -0.23,0zm-0.46 -1.48c0,0 0.04,-0.04 0.04,-0.04 0.04,-0.04 0.07,0 0.07,0 0,0 0.04,0.04 0.08,0.16 0.04,0.04 0.04,0.08 0,0.16l-0.61 0.92c-0.04,0.08 -0.08,0.12 -0.12,0.16 0,0 0,0 -0.04,-0.04l-0.07 -0.16c-0.04,-0.04 0,-0.12 0.03,-0.2l0.62 -0.96zm-2.5 5.69c0.04,-0.72 0.12,-1.12 0.16,-1.16 0,0 0.03,0 0.07,0l0.62 0.72 1.73 1.97c0.19,0.24 0.3,0.36 0.34,0.44 0.04,0.08 0.04,0.12 0.04,0.16 -0.04,0 -0.08,0.04 -0.15,0 -0.04,-0.04 -0.39,-0.28 -1,-0.76l-1.81 -1.37zm-5.19 6.1c0,0 0,0.04 0.04,0.08 0.08,0.2 0.12,0.32 0.04,0.4 -0.04,0.08 -0.08,0.12 -0.19,0.16 -0.08,0 -0.16,0 -0.27,-0.08 -0.23,-0.12 -0.31,-0.2 -0.27,-0.28 0.04,-0.04 0.08,-0.04 0.15,0 0.12,0.08 0.23,0.08 0.27,0 0.04,-0.12 -0.04,-0.24 -0.23,-0.4 -0.11,-0.08 -0.15,-0.16 -0.15,-0.2 0.04,-0.04 0.07,-0.04 0.19,0 0.11,0.04 0.19,0.04 0.27,-0.08 0.04,-0.08 -0.04,-0.2 -0.27,-0.32 -0.12,-0.08 -0.15,-0.16 -0.15,-0.16 0.03,-0.08 0.19,-0.04 0.49,0.12 0.12,0.08 0.2,0.16 0.27,0.28 0.04,0.16 0.04,0.24 0,0.36 -0.03,0.04 -0.11,0.08 -0.19,0.12zm-1.04 -1.16c0,0 0.04,-0.04 0.04,-0.04 0,-0.04 0.04,-0.04 0.04,-0.04 0.04,0 0.08,0.04 0.15,0.08 0.04,0.04 0.08,0.08 0.04,0.16l-0.15 1.12c0,0.08 -0.04,0.16 -0.04,0.16 0,0.04 -0.04,0.04 -0.04,0l-0.15 -0.08c-0.04,-0.04 -0.08,-0.12 -0.04,-0.24l0.15 -1.12zm2.19 6.58c0.16,-0.17 0.35,-0.4 0.5,-0.77 -0.38,-0.04 -0.65,-0.08 -0.73,-0.12 0.08,0.4 0.16,0.69 0.23,0.89zm48.79 15.88c-0.42,0.04 -0.69,0.16 -0.77,0.44 -0.04,0.12 -0.04,0.2 0,0.32 0.08,0.08 0.11,0.16 0.19,0.2 0.16,0.04 0.35,-0.28 0.58,-0.96zm0.88 0.16l-0.11 0.32c-0.2,0.48 -0.35,0.8 -0.5,0.92 -0.16,0.16 -0.27,0.2 -0.46,0.12 -0.12,-0.04 -0.31,-0.16 -0.54,-0.36 -0.27,-0.16 -0.46,-0.36 -0.62,-0.6 -0.15,-0.2 -0.19,-0.4 -0.11,-0.6 0.07,-0.28 0.34,-0.44 0.73,-0.48 0.38,-0.04 0.77,0.04 1.19,0.2 0.19,0.04 0.38,0.16 0.65,0.32 0.23,0.12 0.5,0.32 0.73,0.56 0.23,0.2 0.43,0.4 0.5,0.6 0.12,0.16 0.16,0.28 0.16,0.32 0,0.08 0,0.12 -0.04,0.24 -0.08,0.2 -0.19,0.44 -0.35,0.76 -0.11,0.29 -0.23,0.45 -0.27,0.41 -0.04,0 -0.08,-0.24 -0.11,-0.61 0,-0.4 -0.08,-0.84 -0.23,-1.28 -0.16,-0.44 -0.35,-0.72 -0.62,-0.84zm-4.5 -1.32c0,-0.05 0,-0.08 0,-0.08 0.04,-0.04 0.04,-0.04 0.08,-0.04 0,0 0.04,0.04 0.15,0.07 0.04,0 0.08,0.08 0.08,0.13l0 1.16c0,0.08 0,0.12 0,0.16 -0.04,0 -0.04,0.04 -0.08,0l-0.15 -0.08c-0.04,0 -0.08,-0.08 -0.08,-0.2l0 -1.12zm0.12 2.84c-0.23,-0.68 -0.31,-1.04 -0.27,-1.12 0,0 0.04,0 0.08,0l0.84 0.44 2.23 1.16c0.27,0.16 0.46,0.24 0.5,0.28 0.08,0.04 0.12,0.09 0.08,0.12 0,0.05 -0.04,0.09 -0.12,0.09 -0.03,0 -0.46,-0.12 -1.19,-0.33l-2.15 -0.64zm-0.61 -1.4c0,0 0.03,-0.04 0.03,-0.04 0,-0.04 0.04,-0.04 0.04,-0.04 0,0 0.08,0 0.15,0.08 0.04,0 0.08,0.08 0.08,0.12l-0.04 1.16c0,0.08 0,0.12 0,0.16 -0.04,0 -0.04,0 -0.07,0l-0.16 -0.08c-0.03,0 -0.07,-0.08 -0.07,-0.2l0.04 -1.16zm0 3.57l0.49 -0.16 -0.15 -0.56 0.58 -0.2 0.19 0.6 -0.54 0.16 0.19 0.56 -0.57 0.2 -0.19 -0.6zm-2.04 0c-0.04,0.04 -0.04,0.12 0,0.2 0.03,0.04 0.07,0.12 0.11,0.12 0.16,0.08 0.27,0 0.39,-0.24 0.03,-0.08 0.07,-0.12 0.07,-0.2 0,-0.08 0,-0.12 -0.04,-0.12 -0.03,-0.04 -0.15,-0.04 -0.26,0.04 -0.16,0.04 -0.24,0.12 -0.27,0.2zm-0.23 -0.32c0.07,-0.16 0.15,-0.24 0.3,-0.24 0.16,-0.04 0.31,0 0.46,0.04 0.16,0.12 0.27,0.24 0.31,0.44 0.04,0.2 0.04,0.4 -0.04,0.52 -0.03,0.12 -0.15,0.16 -0.27,0.2 -0.11,0.04 -0.23,0 -0.38,-0.08 -0.15,-0.08 -0.31,-0.2 -0.38,-0.36 -0.08,-0.16 -0.12,-0.36 0,-0.52zm1.38 7.26c0.27,0.12 0.5,0.16 0.69,0.08 0.23,-0.04 0.42,-0.16 0.54,-0.32 0.08,-0.08 0.12,-0.16 0.12,-0.2 0,-0.08 -0.04,-0.13 -0.04,-0.16 -0.04,0 -0.16,0 -0.31,0 -0.15,0 -0.38,0.08 -0.62,0.16l-0.38 0.44zm-0.65 -0.65l0.38 -0.52c0,-0.28 -0.04,-0.48 -0.15,-0.6 -0.12,-0.08 -0.23,-0.08 -0.35,0.04 -0.08,0.12 -0.11,0.28 -0.11,0.48 0.03,0.2 0.11,0.4 0.23,0.6zm-2.2 -3.24c0,0 0.04,-0.04 0.04,-0.04 0,-0.04 0.04,-0.04 0.08,0 0,0 0.04,0.04 0.12,0.12 0.03,0 0.03,0.08 0,0.16l-0.39 1.04c-0.04,0.08 -0.04,0.12 -0.08,0.16 0,0 -0.03,0 -0.03,0l-0.12 -0.16c-0.04,0 -0.04,-0.08 0,-0.2l0.38 -1.08zm-3.69 3.53c0,-0.12 -0.03,-0.21 -0.07,-0.29 -0.04,-0.03 -0.08,-0.07 -0.16,-0.07 -0.03,-0.05 -0.07,0 -0.11,0 -0.08,0.07 -0.08,0.15 0,0.28 0.08,0.12 0.19,0.12 0.34,0.08zm0.31 -0.16c0.04,0.12 0.12,0.2 0.16,0.28l0.04 0.04c-0.08,0.04 -0.16,0.12 -0.31,0.16 0,0.44 -0.12,0.8 -0.39,1.04 -0.07,0.04 -0.07,0.04 -0.11,0 -0.04,-0.04 0,-0.12 0.07,-0.24 0.12,-0.24 0.2,-0.48 0.2,-0.72 -0.12,0.04 -0.2,0.04 -0.23,0.04 -0.08,-0.04 -0.16,-0.08 -0.2,-0.16 -0.11,-0.16 -0.15,-0.32 -0.15,-0.52 0,-0.25 0.08,-0.37 0.15,-0.45 0.08,-0.08 0.16,-0.08 0.23,-0.04 0.12,0.04 0.2,0.08 0.23,0.16 0.12,0.13 0.16,0.28 0.16,0.49 0.07,-0.04 0.11,-0.04 0.15,-0.08zm-1.15 2.28c0.23,-0.68 0.38,-1.04 0.42,-1.08 0.04,0 0.04,0 0.08,0.04l0.42 0.88 1.19 2.33c0.12,0.28 0.2,0.44 0.23,0.52 0.04,0.08 0,0.16 -0.03,0.16 0,0.04 -0.04,0 -0.12,0 -0.04,-0.04 -0.31,-0.4 -0.77,-1l-1.42 -1.85zm-0.27 -1.8c0,0 0.04,-0.04 0.04,-0.04 0.04,0 0.04,0 0.08,0 0,0.04 0.03,0.08 0.07,0.16 0,0.04 0,0.12 -0.04,0.16l-0.65 0.92c-0.08,0.04 -0.11,0.08 -0.11,0.12 -0.04,0 -0.04,0 -0.04,-0.04l-0.08 -0.16c-0.04,-0.04 0,-0.12 0.04,-0.2l0.69 -0.92zm0.15 3.53c0.04,0 0.23,0.08 0.54,0.32 0.27,0.24 0.54,0.6 0.73,1.04 0.58,1.2 0.27,2.09 -0.92,2.69 -0.5,0.28 -0.96,0.36 -1.34,0.28 -0.39,-0.04 -0.7,-0.32 -0.89,-0.76 -0.12,-0.25 -0.23,-0.53 -0.27,-0.85 -0.04,-0.32 0,-0.52 0.08,-0.56 0.04,0 0.07,0 0.07,0.04 0,0.04 0.04,0.12 0.08,0.24 0.04,0.24 0.08,0.44 0.12,0.52 0.27,0.57 0.84,0.65 1.69,0.21 0.46,-0.24 0.84,-0.49 1.04,-0.77 0.23,-0.28 0.3,-0.56 0.23,-0.76 -0.12,-0.2 -0.46,-0.44 -1.08,-0.68 -0.08,0 -0.11,-0.04 -0.11,-0.04 -0.04,-0.04 -0.04,-0.12 0,-0.24 0,-0.16 0,-0.28 0,-0.44 0,-0.12 0.03,-0.2 0.03,-0.24zm-1.38 0l0.58 0.2 -0.19 0.6 -0.58 -0.2 0.19 -0.6zm-3.5 2.72c-0.19,0.04 -0.23,0.21 -0.15,0.4 0.04,0.16 0.15,0.37 0.38,0.61 0.23,0.24 0.42,0.32 0.58,0.28 0.15,-0.08 0.19,-0.2 0.15,-0.4 -0.08,-0.24 -0.23,-0.44 -0.42,-0.65 -0.19,-0.24 -0.38,-0.32 -0.54,-0.24zm-1.07 -2.8c0.03,-0.08 0.03,-0.2 0.03,-0.29 -0.03,-0.03 -0.07,-0.12 -0.11,-0.12 -0.04,-0.03 -0.08,-0.08 -0.12,-0.03 -0.11,0.03 -0.15,0.12 -0.07,0.24 0.03,0.12 0.11,0.2 0.27,0.2zm0.34 0c0.04,0.12 0.04,0.2 0.08,0.28l0 0.04c-0.08,0.04 -0.19,0.04 -0.31,0.04 -0.15,0.44 -0.42,0.72 -0.73,0.84 -0.08,0 -0.08,0 -0.11,0 0,-0.04 0.03,-0.12 0.15,-0.24 0.19,-0.2 0.34,-0.36 0.42,-0.56 -0.11,-0.04 -0.19,-0.04 -0.23,-0.08 -0.04,-0.04 -0.11,-0.12 -0.11,-0.24 -0.08,-0.16 -0.04,-0.32 0.03,-0.52 0.08,-0.21 0.16,-0.33 0.31,-0.37 0.04,-0.04 0.12,0 0.19,0.04 0.08,0.08 0.16,0.16 0.2,0.24 0.03,0.16 0.03,0.33 -0.04,0.53 0.07,0 0.11,0 0.15,0zm-4.34 1.08c0,0 0.04,0 0.04,0 0.03,-0.04 0.07,0 0.07,0 0,0.04 0,0.08 0,0.2 0,0.04 0,0.08 -0.07,0.12l-0.93 0.56c-0.07,0.08 -0.15,0.08 -0.15,0.08 -0.04,0 -0.04,0 -0.04,-0.04l-0.04 -0.16c0,-0.08 0.04,-0.12 0.16,-0.16l0.96 -0.6zm-3.31 3.01c-0.08,0 -0.15,0.04 -0.19,0.08 -0.08,0.08 -0.12,0.16 -0.12,0.24 0,0.12 0.04,0.28 0.12,0.48 0.07,0.2 0.19,0.32 0.31,0.44 0.11,0.08 0.23,0.16 0.34,0.16 0.12,0 0.19,-0.08 0.19,-0.24 0,-0.12 -0.03,-0.28 -0.11,-0.52 -0.08,-0.2 -0.16,-0.36 -0.27,-0.48 -0.08,-0.08 -0.19,-0.16 -0.27,-0.16zm-0.57 -2.53c-0.04,0 -0.04,0.04 -0.08,0.08 -0.12,0.16 -0.23,0.28 -0.31,0.24 -0.12,0 -0.15,-0.04 -0.23,-0.08 -0.04,-0.08 -0.08,-0.2 -0.08,-0.32 0,-0.24 0.04,-0.36 0.16,-0.36 0.03,0 0.03,0.04 0.03,0.16 0,0.12 0.04,0.2 0.16,0.2 0.11,0 0.19,-0.12 0.23,-0.4 0,-0.12 0.04,-0.2 0.08,-0.2 0.04,0 0.07,0.04 0.07,0.16 0.04,0.12 0.08,0.2 0.19,0.2 0.08,0 0.16,-0.12 0.2,-0.36 0,-0.16 0,-0.24 0.03,-0.24 0.08,0 0.12,0.16 0.12,0.48 0,0.16 -0.04,0.32 -0.12,0.4 -0.07,0.12 -0.19,0.16 -0.26,0.16 -0.08,0 -0.16,-0.04 -0.19,-0.12zm-0.81 -0.36c0,-0.04 0.04,-0.04 0.07,-0.04 0,0.04 0.04,0.04 0.04,0.08 0,0 -0.04,0.04 -0.04,0.16 0,0.04 -0.03,0.08 -0.11,0.12l-1.08 0.24c-0.08,0.04 -0.11,0.04 -0.15,0.04 0,0 -0.04,-0.04 -0.04,-0.08l0.04 -0.16c0.04,-0.04 0.07,-0.08 0.19,-0.12l1.08 -0.24zm-3 -0.48c0.04,-0.04 0.08,-0.04 0.08,-0.04 0.03,0.04 0.03,0.04 0.03,0.08 0,0 0,0.04 -0.03,0.16 -0.04,0.04 -0.08,0.08 -0.16,0.08l-1.07 0.16c-0.08,0 -0.12,0 -0.16,0 0,0 -0.04,0 0,-0.04l0.04 -0.16c0,-0.08 0.08,-0.12 0.19,-0.12l1.08 -0.12zm-3.92 2.2c0.04,0 0.07,0.12 0.11,0.28 0.08,0.2 0.08,0.41 0.08,0.65 0,0.24 -0.04,0.48 -0.12,0.72 -0.11,0.24 -0.23,0.48 -0.38,0.72 -0.19,0.24 -0.35,0.44 -0.58,0.6 -0.19,0.16 -0.34,0.28 -0.46,0.28 -0.08,0.04 -0.19,0.04 -0.27,0 -0.19,-0.08 -0.46,-0.2 -0.73,-0.36 -0.3,-0.16 -0.42,-0.24 -0.42,-0.32 0,0 0.15,-0.04 0.46,-0.08 0.69,-0.04 1.19,-0.16 1.5,-0.28 0.31,-0.16 0.46,-0.28 0.54,-0.4 0.04,-0.2 -0.08,-0.6 -0.39,-1.16 -0.03,-0.04 -0.03,-0.09 -0.03,-0.09 0,-0.03 0.11,-0.12 0.34,-0.32 0.19,-0.15 0.31,-0.24 0.35,-0.24zm0.46 -2.96c0,0 -0.04,0.04 -0.08,0.08 -0.15,0.12 -0.27,0.12 -0.38,0.08 -0.08,0 -0.12,-0.08 -0.16,-0.16 -0.03,-0.08 0,-0.2 0.04,-0.28 0.08,-0.25 0.16,-0.37 0.23,-0.33 0.04,0 0.04,0.04 0,0.16 -0.04,0.12 0,0.2 0.08,0.25 0.12,0.04 0.23,-0.05 0.35,-0.29 0.03,-0.12 0.11,-0.16 0.15,-0.16 0.04,0 0.04,0.08 0.04,0.16 -0.04,0.16 0,0.24 0.08,0.29 0.07,0.04 0.19,-0.08 0.3,-0.33 0.04,-0.12 0.08,-0.2 0.12,-0.16 0.07,0.04 0.07,0.2 -0.04,0.49 -0.08,0.16 -0.15,0.28 -0.27,0.36 -0.11,0.04 -0.19,0.08 -0.31,0.04 -0.07,-0.04 -0.11,-0.12 -0.15,-0.2zm0.96 -1.21c0.04,0 0.04,0 0.08,0 0,0.04 0.04,0.04 0,0.08 0,0 0,0.04 -0.04,0.16 -0.04,0.04 -0.08,0.08 -0.16,0.08l-1.07 -0.04c-0.12,0 -0.16,0 -0.19,0 0,0 0,-0.04 0,-0.08l0.07 -0.16c0.04,-0.04 0.08,-0.04 0.2,-0.04l1.11 0zm-3.31 -0.36c0.08,-0.04 0.16,-0.12 0.2,-0.2 0.03,-0.04 0.03,-0.12 0.03,-0.16 0,-0.08 -0.03,-0.12 -0.07,-0.12 -0.12,-0.04 -0.19,0 -0.23,0.12 -0.08,0.12 -0.04,0.24 0.07,0.36zm0.27 0.24c-0.07,0.08 -0.15,0.16 -0.19,0.24l0 0.04c-0.08,-0.04 -0.15,-0.08 -0.27,-0.2 -0.38,0.2 -0.77,0.24 -1.04,0.08 -0.07,-0.04 -0.11,-0.08 -0.07,-0.08 0,-0.04 0.07,-0.08 0.23,-0.08 0.27,0.04 0.5,0 0.69,-0.08 -0.08,-0.12 -0.12,-0.16 -0.12,-0.24 0,-0.08 0,-0.16 0.08,-0.24 0.04,-0.16 0.19,-0.28 0.39,-0.36 0.15,-0.08 0.3,-0.08 0.42,-0.04 0.07,0.04 0.11,0.12 0.15,0.2 0,0.08 0,0.2 -0.08,0.28 -0.03,0.16 -0.15,0.28 -0.3,0.36 0.04,0.04 0.07,0.08 0.11,0.12zm-5.34 1.17c0.12,-0.41 0.04,-0.73 -0.15,-0.89 -0.12,-0.04 -0.2,-0.08 -0.31,-0.08 -0.08,0.04 -0.15,0.08 -0.19,0.12 -0.12,0.12 0.04,0.32 0.42,0.64l0.23 0.21zm1.73 -4.06c-0.04,-0.04 -0.12,-0.04 -0.15,-0.04 -0.08,0.04 -0.16,0.09 -0.2,0.12 -0.07,0.12 -0.03,0.29 0.16,0.45 0.07,0.04 0.15,0.08 0.19,0.08 0.08,0.04 0.11,0.04 0.15,0 0.04,-0.04 0.04,-0.12 0,-0.28 0,-0.16 -0.07,-0.25 -0.15,-0.33zm0.35 -0.2c0.15,0.12 0.19,0.25 0.19,0.4 0,0.17 -0.08,0.33 -0.16,0.45 -0.11,0.16 -0.27,0.24 -0.5,0.24 -0.19,0 -0.34,-0.04 -0.46,-0.12 -0.07,-0.08 -0.11,-0.2 -0.11,-0.32 0,-0.12 0.04,-0.25 0.11,-0.37 0.12,-0.16 0.27,-0.28 0.46,-0.36 0.16,-0.04 0.31,0 0.47,0.08zm-2.27 1.17l-1.04 1.12c-0.65,0.68 -1.11,1.16 -1.42,1.4 -0.27,0.28 -0.54,0.45 -0.81,0.53 -0.23,0.04 -0.5,0.04 -0.81,-0.08 -0.3,-0.09 -0.65,-0.29 -0.96,-0.61 -0.42,-0.44 -0.65,-0.84 -0.69,-1.2 0,-0.4 0.12,-0.72 0.35,-0.96 0.15,-0.2 0.34,-0.36 0.65,-0.56 0.27,-0.2 0.42,-0.24 0.5,-0.2 0.04,0.04 0,0.08 -0.04,0.12 0,0 0,0 -0.04,0 -0.15,0.16 -0.31,0.28 -0.42,0.44 -0.23,0.24 -0.31,0.52 -0.23,0.8 0.11,0.32 0.31,0.64 0.65,0.96 0.27,0.28 0.54,0.44 0.77,0.52 0.23,0.12 0.46,0.16 0.62,0.12 0.15,0 0.27,-0.08 0.34,-0.12 0,-0.04 0.04,-0.04 0.04,-0.08l1.08 -1.4c0.23,-0.28 0.5,-0.68 0.8,-1.2 0.12,-0.12 0.16,-0.2 0.16,-0.24 0.08,-0.05 0.27,-0.13 0.57,-0.16 0.08,0 0.16,0 0.24,-0.04 0.15,0 0.22,0 0.22,0 0,0.04 0.04,0.07 0,0.07 0,0.05 -0.03,0.13 -0.07,0.29 -0.08,0.2 -0.15,0.36 -0.19,0.52 -0.04,0.12 -0.08,0.16 -0.08,0.2 -0.04,0.04 -0.04,0.04 -0.08,0 -0.04,-0.04 -0.07,-0.12 -0.11,-0.24zm-0.66 -3.25c0.08,-0.04 0.16,-0.08 0.24,-0.12 0.03,-0.08 0.03,-0.12 0.07,-0.16 0,-0.08 -0.04,-0.12 -0.04,-0.16 -0.07,-0.04 -0.15,-0.04 -0.27,0.04 -0.07,0.12 -0.07,0.24 0,0.4zm0.16 0.28c-0.08,0.08 -0.16,0.16 -0.23,0.2l-0.04 0.04c-0.04,-0.04 -0.12,-0.16 -0.16,-0.28 -0.46,0.08 -0.8,0 -1.03,-0.24 -0.08,-0.04 -0.08,-0.08 -0.08,-0.12 0.04,0 0.12,0 0.27,0.04 0.23,0.08 0.5,0.12 0.69,0.12 -0.04,-0.12 -0.04,-0.2 -0.04,-0.28 0,-0.08 0.04,-0.12 0.12,-0.2 0.11,-0.12 0.27,-0.2 0.46,-0.24 0.19,0 0.34,0 0.46,0.12 0.04,0.04 0.08,0.12 0.04,0.24 0,0.08 -0.04,0.16 -0.12,0.24 -0.11,0.12 -0.23,0.2 -0.42,0.24 0.04,0.04 0.08,0.12 0.08,0.12zm-3.08 -1.89c0.7,0.2 1.04,0.33 1.08,0.37 0,0.03 0,0.03 -0.04,0.08l-0.81 0.52 -2.15 1.36c-0.27,0.16 -0.42,0.28 -0.5,0.32 -0.08,0 -0.12,0 -0.15,-0.04 0,0 0,-0.08 0.03,-0.12 0.04,-0.04 0.35,-0.36 0.89,-0.88l1.65 -1.61zm-5.42 -6.25c-0.04,0.24 -0.04,0.56 0,0.96 0.39,-0.24 0.62,-0.36 0.69,-0.4 -0.26,-0.24 -0.5,-0.44 -0.69,-0.56zm45.48 3.29l0.58 -0.2 0.19 0.6 -0.58 0.2 -0.19 -0.6zm0.77 4.89l0.57 -0.8 0 -0.04 0.62 -0.97 0.08 0.05c0.07,-0.17 0.11,-0.29 0.07,-0.37 0,-0.08 -0.07,-0.2 -0.23,-0.32 -0.11,-0.04 -0.11,-0.12 -0.11,-0.16 0.04,-0.04 0.07,-0.04 0.19,0 0.27,0.08 0.5,0 0.61,-0.24 0.04,-0.12 0.08,-0.2 0.04,-0.32 -0.04,-0.08 -0.11,-0.16 -0.23,-0.28 -0.11,-0.08 -0.15,-0.12 -0.11,-0.16 0,-0.04 0.07,-0.04 0.15,-0.04 0.31,0.12 0.54,0 0.69,-0.32 0.04,-0.12 0.08,-0.2 0.08,-0.28 0,-0.12 -0.04,-0.16 -0.11,-0.2 -0.08,-0.04 -0.27,-0.04 -0.54,0 -0.04,0 -0.08,0 -0.12,0 0,-0.04 -0.04,-0.04 -0.04,-0.08l-0.19 -0.36c-0.04,-0.04 -0.04,-0.04 0,-0.08 0,-0.04 0.15,-0.04 0.42,0 0.23,0.04 0.5,0.16 0.73,0.32 0.23,0.16 0.43,0.36 0.54,0.56 0.12,0.2 0.16,0.44 0.04,0.6 -0.08,0.2 -0.31,0.32 -0.62,0.36 0.16,0.28 0.2,0.52 0.12,0.72 -0.12,0.2 -0.31,0.36 -0.61,0.36 0.15,0.32 0.15,0.61 0,0.85l-0.04 0.16 -0.16 -0.08 -0.42 0.72 0 0 -0.58 0.88 0 0.04 -0.69 0.92 -0.04 0 -0.42 0.52c0.42,-0.12 0.73,-0.12 0.92,0.08 0.16,0.12 0.23,0.29 0.23,0.45 0,0.16 -0.03,0.32 -0.15,0.44 -0.19,0.24 -0.46,0.36 -0.81,0.4 -0.34,0.04 -0.69,-0.08 -1.07,-0.32l-0.23 0.32 -0.08 -0.04 -0.58 0.64 0 0 -0.04 0.04 -0.04 0 0 0 -0.72 0.76 -0.05 0 -0.03 0c-0.16,0.16 -0.35,0.2 -0.54,0.12 -0.23,-0.04 -0.5,-0.2 -0.85,-0.4 0.12,0.84 -0.07,1.48 -0.57,1.89 -0.39,0.32 -0.69,0.28 -0.96,-0.08 -0.12,-0.16 -0.23,-0.33 -0.31,-0.57 -0.12,-0.24 -0.15,-0.36 -0.08,-0.4 0.04,-0.04 0.04,0 0.08,0.04 0.04,0 0.04,0.04 0.08,0.12 0.03,0.04 0.07,0.12 0.07,0.12 0.08,0.12 0.19,0.16 0.35,0.12 0.15,0 0.31,-0.08 0.46,-0.2 0.35,-0.32 0.58,-0.72 0.65,-1.2l-1 -0.64 -0.07 -0.04c-0.08,-0.04 -0.12,-0.08 -0.12,-0.08 -0.04,-0.04 -0.04,-0.12 -0.04,-0.24 0,-0.08 0,-0.16 0,-0.24 0,-0.12 0,-0.2 0,-0.2 0.04,-0.04 0.12,0 0.27,0.12l0.73 0.52c0.69,0.48 1.12,0.64 1.27,0.48l0.12 -0.08 0.65 -0.6 0.73 -0.84 0.04 0.04 0.11 -0.12c-0.27,-0.45 -0.38,-0.85 -0.38,-1.25 0,-0.4 0.08,-0.68 0.23,-0.88 0.08,-0.08 0.15,-0.12 0.27,-0.16 0.15,0 0.27,0.04 0.35,0.16 0.26,0.2 0.38,0.6 0.38,1.12l0.58 -0.68 0 0 0.5 -0.64 -0.04 -0.04zm-14.38 10.39c0.38,-0.12 0.54,-0.28 0.5,-0.44 0,0 -0.04,-0.04 -0.04,-0.04 -0.04,-0.08 -0.04,-0.16 -0.08,-0.24 -0.07,-0.25 -0.07,-0.44 0.04,-0.61 0.08,-0.2 0.2,-0.32 0.43,-0.4 0.15,-0.04 0.34,-0.04 0.54,0.08 0.19,0.12 0.34,0.32 0.5,0.56 0.19,0.25 0.26,0.45 0.34,0.61 0.08,0.28 0.08,0.52 -0.04,0.72 -0.07,0.16 -0.19,0.28 -0.35,0.32 -0.3,0.12 -0.69,-0.08 -1.11,-0.6 0.04,0.24 0,0.48 -0.08,0.64 -0.07,0.12 -0.15,0.24 -0.27,0.28l0 0.04 -0.11 0.04 0 0 0 0 -0.96 0.28 0 -0.04c-0.46,0.08 -0.77,0.08 -0.92,0.04 -0.2,0 -0.35,-0.12 -0.47,-0.28 -0.07,-0.12 -0.15,-0.32 -0.19,-0.52 0,0 0,-0.08 -0.04,-0.24l-0.61 0.72c-0.19,0.2 -0.39,0.4 -0.54,0.52 -0.19,0.12 -0.38,0.24 -0.61,0.32 -0.2,0.08 -0.39,0.12 -0.62,0.16l0 0.04 -0.12 0c0,0 -0.03,0 -0.07,0l0 0 -0.81 0.04 0 0.04 -0.11 0 0 0 0 0 -0.12 0c-0.27,-0.04 -0.5,-0.2 -0.61,-0.56 -0.12,0.24 -0.24,0.36 -0.35,0.48 -0.08,0.08 -0.19,0.12 -0.35,0.12 -0.34,0 -0.61,-0.28 -0.84,-0.76 -0.16,0.28 -0.31,0.44 -0.43,0.52 -0.11,0.08 -0.19,0.08 -0.3,0.12l0 0 -0.08 0c-0.04,0 -0.08,0 -0.11,0l0 0 -0.97 -0.08 0 0 -0.99 -0.12 0 -0.04c-0.2,-0.04 -0.35,-0.16 -0.43,-0.4 -0.11,-0.2 -0.19,-0.52 -0.23,-0.92 -0.54,0.64 -1.15,0.88 -1.77,0.72 -0.46,-0.12 -0.65,-0.36 -0.54,-0.84 0.04,-0.16 0.12,-0.36 0.23,-0.6 0.08,-0.2 0.2,-0.32 0.24,-0.32 0.04,0.04 0.04,0.04 0.04,0.12 0,0 0,0.04 -0.04,0.12 -0.04,0.08 -0.04,0.12 -0.04,0.16 -0.04,0.12 0,0.24 0.11,0.36 0.12,0.08 0.23,0.16 0.43,0.2 0.46,0.12 0.88,0.04 1.3,-0.2l-0.15 -1.21 0 -0.07c0,-0.09 -0.04,-0.17 -0.04,-0.17 0.04,-0.04 0.08,-0.08 0.19,-0.2 0.04,-0.04 0.12,-0.08 0.16,-0.12 0.11,-0.08 0.15,-0.12 0.19,-0.12 0,0 0.04,0.08 0.04,0.28l0.07 0.93c0.08,0.84 0.24,1.28 0.46,1.36l0.12 0 0 0 0.88 0.12 0 0 0.93 0.08c0.11,0 0.19,-0.04 0.27,-0.04 0.11,-0.04 0.19,-0.08 0.23,-0.16 0.03,-0.08 0.03,-0.2 0.03,-0.32 0.04,-0.2 0.08,-0.36 0.12,-0.48 0.04,-0.16 0.16,-0.24 0.27,-0.36 0.11,-0.08 0.27,-0.12 0.42,-0.12 0.16,0 0.27,0.04 0.42,0.16 0.12,0.08 0.27,0.32 0.47,0.68 0.07,0.2 0.15,0.36 0.23,0.44 0.07,0.08 0.15,0.12 0.27,0.2 0.07,0 0.19,0.04 0.3,0.04l0.85 -0.04 0.15 -0.04c0.35,-0.08 0.66,-0.16 0.93,-0.28 0.27,-0.16 0.65,-0.4 1.15,-0.8l-1.19 -0.12c-0.23,-0.04 -0.39,-0.04 -0.42,0 -0.16,0 -0.28,0.12 -0.39,0.32 -0.04,0.08 -0.08,0.12 -0.12,0.16 -0.03,0 -0.07,-0.04 -0.07,-0.08 0,-0.04 0,-0.16 0.04,-0.36 0.07,-0.2 0.15,-0.4 0.23,-0.57 0.11,-0.15 0.27,-0.24 0.46,-0.28 0.15,-0.04 0.35,0 0.65,0.04 0.77,0.13 1.46,0.13 2.16,0.04 0.07,-0.04 0.11,-0.04 0.11,-0.04 0.04,0.04 0.04,0.04 0.04,0.04 0,0.05 0,0.09 0,0.13l-0.15 0.52 0 0.04c-0.04,0.04 -0.04,0.08 -0.04,0.08 -0.04,0 -0.08,0 -0.12,0.04 -0.04,0 -0.15,0 -0.27,0.04 -0.08,0 -0.11,0 -0.15,0 -0.12,0.04 -0.19,0.08 -0.16,0.2 0,0.12 0.12,0.2 0.31,0.24 0.23,0 0.54,0 1.04,-0.08l0 0 0.73 -0.24zm-20.3 -2.69l0.2 0.08c0.15,0.12 0.27,0.12 0.38,0.12 0.08,-0.04 0.19,-0.12 0.27,-0.28 0.08,-0.12 0.15,-0.16 0.19,-0.12 0.04,0 0.04,0.08 0,0.16 -0.08,0.32 -0.04,0.56 0.23,0.68 0.12,0.04 0.19,0.04 0.31,0 0.08,0 0.15,-0.08 0.27,-0.2 0.08,-0.12 0.11,-0.16 0.15,-0.16 0.04,0.04 0.04,0.08 0.04,0.16 -0.11,0.32 0,0.56 0.31,0.72 0.11,0.08 0.19,0.08 0.31,0.08 0.07,0 0.11,-0.04 0.15,-0.12 0.04,-0.08 0.04,-0.28 0,-0.56 0,-0.04 0,-0.08 0,-0.08 0,-0.04 0.04,-0.08 0.08,-0.08l0.34 -0.2c0.04,-0.04 0.04,-0.04 0.08,-0.04 0.04,0.04 0.04,0.2 0,0.48 -0.04,0.24 -0.16,0.52 -0.31,0.76 -0.11,0.24 -0.31,0.45 -0.5,0.57 -0.23,0.16 -0.42,0.16 -0.61,0.08 -0.2,-0.13 -0.31,-0.33 -0.35,-0.65 -0.27,0.16 -0.5,0.2 -0.69,0.13 -0.19,-0.13 -0.31,-0.33 -0.35,-0.65 -0.27,0.16 -0.54,0.16 -0.8,0.04l-0.04 0 0 0 -0.08 -0.04 -0.04 -0.04 0 0 -0.84 -0.52 0 0 -0.85 -0.56 0 0 -0.46 -0.4c-0.23,0.24 -0.46,0.44 -0.69,0.6 -0.23,0.16 -0.46,0.28 -0.7,0.36 -0.23,0.04 -0.34,0.08 -0.42,0.08 -0.07,0 -0.15,-0.04 -0.19,-0.08 -0.27,-0.2 -0.5,-0.4 -0.69,-0.6 -0.19,-0.24 -0.31,-0.36 -0.27,-0.4 0.04,-0.04 0.23,0 0.58,0.08 0.34,0.08 0.73,0.16 1.19,0.16 0.46,0 0.81,-0.12 1,-0.36 -0.5,-0.4 -0.81,-0.72 -0.93,-0.92 -0.11,-0.2 -0.07,-0.41 0.04,-0.57 0.16,-0.24 0.46,-0.48 0.89,-0.72 0.42,-0.24 0.73,-0.24 0.92,-0.08 0.38,0.28 0.35,0.88 -0.12,1.73l0.54 0.44 0.77 0.52 0 0 0.69 0.4zm-10.57 -15.48c0.19,-0.08 0.31,-0.12 0.35,-0.16 0.04,0 0.15,0.04 0.38,0.08 0.23,0.08 0.35,0.16 0.35,0.16 0,0.04 -0.12,0.12 -0.35,0.24l-0.84 0.44c-0.35,0.2 -0.58,0.36 -0.7,0.44 -0.07,0.12 -0.07,0.2 -0.07,0.32l0 -0.04 0.38 1 0.04 -0.03 0.39 0.92 0 -0.04 0.07 0.16c0.08,0.16 0.16,0.24 0.27,0.28 0.12,0.04 0.23,0.04 0.42,-0.04 0.16,-0.08 0.58,-0.28 1.23,-0.64 0.31,-0.16 0.54,-0.32 0.73,-0.44 0.47,0.16 0.7,0.28 0.73,0.32 0,0.04 -0.03,0.12 -0.19,0.2 -0.27,0.12 -0.65,0.32 -1.15,0.56 -0.39,0.16 -0.66,0.28 -0.81,0.36 -0.27,0.16 -0.42,0.28 -0.54,0.4 -0.07,0.12 -0.07,0.24 0,0.4l0.04 0.12 0.5 0.84 0.08 0.17c0.07,0.12 0.19,0.23 0.31,0.28 0.11,0.04 0.23,0.04 0.34,-0.05 0.2,-0.07 0.43,-0.32 0.81,-0.68l0.77 -0.8c0,0 0.04,0 0.11,0l0.46 0.04c0.16,0.04 0.23,0.04 0.23,0.08 0.04,0.04 0,0.12 -0.07,0.24 -0.12,0.16 -0.27,0.36 -0.46,0.64 0,0.04 -0.04,0.04 -0.04,0.08 -0.04,0 -0.04,0 -0.08,-0.04 0,0 0,-0.08 -0.04,-0.16 0,0 0,-0.04 0,-0.04 -0.07,0.04 -0.15,0.08 -0.27,0.16 -0.07,0.08 -0.11,0.12 -0.15,0.12l-0.54 0.36c-0.34,0.25 -0.65,0.45 -0.88,0.53 -0.27,0.12 -0.46,0.16 -0.66,0.16 -0.19,-0.04 -0.3,-0.08 -0.38,-0.16 -0.11,-0.08 -0.19,-0.2 -0.31,-0.32l0 0 -0.04 -0.12 0 0 -0.46 -0.81 0 0 -0.03 -0.08 -0.04 -0.04 0 0 -0.08 -0.12c-0.12,-0.28 -0.08,-0.52 0.12,-0.84 -0.35,-0.04 -0.62,-0.2 -0.77,-0.52l0 0 0 0 -0.43 -0.96 -0.03 0 -0.35 -0.97 -0.04 0.04 -0.08 -0.2c-0.07,-0.28 -0.07,-0.48 0,-0.68 0.12,-0.16 0.31,-0.32 0.62,-0.52l-0.27 -0.04c-0.15,-0.04 -0.23,-0.08 -0.23,-0.12 0,-0.04 -0.04,-0.2 -0.04,-0.52 0,-0.28 0,-0.48 0.04,-0.52 0.04,-0.04 0.08,-0.08 0.11,-0.12 0.08,0 0.16,-0.04 0.31,-0.04 0.15,0 0.27,0 0.39,0.04 0.11,0.04 0.42,0.28 0.84,0.68zm38.91 -28.64l0.3 -1.16 0 -0.08c0.04,-0.12 0.04,-0.16 0.08,-0.2 0,0 0.08,-0.04 0.19,-0.08 0.08,0 0.16,-0.04 0.23,-0.04 0.12,-0.04 0.19,-0.08 0.19,-0.08 0.04,0.04 0,0.12 -0.03,0.28l-0.27 0.92c-0.27,0.8 -0.31,1.28 -0.12,1.4l0.12 0.13c0.88,0.8 1.84,1.68 2.53,2.6 0.43,-0.2 0.85,-0.24 1.23,-0.16 0.39,0.04 0.66,0.2 0.77,0.4 0.08,0.08 0.12,0.2 0.12,0.32 -0.04,0.12 -0.12,0.24 -0.19,0.32 -0.27,0.24 -0.66,0.28 -1.16,0.16l0.5 0.69 0.04 -0.04 0.58 0.88 0 0 0.57 0.96 0 0 0.51 0.92 0.03 0 0.12 0.24c0.07,0.21 0.15,0.29 0.23,0.33 0.08,0.04 0.23,0.04 0.38,0 0.12,-0.04 0.2,0 0.2,0.04 0.03,0.04 0,0.08 -0.08,0.12 -0.27,0.2 -0.35,0.4 -0.23,0.64 0.04,0.12 0.11,0.2 0.19,0.24 0.12,0.04 0.23,0.04 0.35,0 0.15,-0.04 0.23,-0.04 0.23,0 0,0.04 0,0.12 -0.08,0.16 -0.27,0.16 -0.35,0.44 -0.19,0.76 0.04,0.12 0.11,0.2 0.15,0.24 0.08,0.04 0.15,0.08 0.23,0.04 0.08,-0.04 0.19,-0.2 0.35,-0.4 0.04,-0.08 0.04,-0.12 0.04,-0.12 0.03,0 0.07,0 0.11,0l0.39 0.08c0.04,0 0.04,0 0.04,0.04 0.03,0.04 -0.04,0.16 -0.24,0.36 -0.23,0.16 -0.46,0.28 -0.73,0.4 -0.27,0.04 -0.5,0.08 -0.77,0.04 -0.23,-0.04 -0.38,-0.12 -0.46,-0.32 -0.07,-0.2 -0.04,-0.44 0.12,-0.72 -0.31,-0.04 -0.5,-0.16 -0.58,-0.36 -0.11,-0.24 -0.07,-0.48 0.12,-0.76 -0.31,-0.04 -0.54,-0.2 -0.66,-0.48l-0.03 0 -0.5 -0.93 0 0 -0.5 -0.88 0 0 -0.62 -0.88 0 0.04 -0.54 -0.72c0.08,0.48 0,0.8 -0.23,1 -0.15,0.12 -0.31,0.16 -0.46,0.12 -0.15,-0.04 -0.27,-0.12 -0.38,-0.24 -0.16,-0.24 -0.24,-0.52 -0.24,-0.88 0.04,-0.36 0.2,-0.73 0.5,-1.09 -0.57,-0.76 -1.65,-1.92 -2.42,-2.48 -0.19,-0.16 -0.27,-0.32 -0.27,-0.56 0,-0.2 0.04,-0.53 0.16,-0.97 -0.77,0.36 -1.39,0.36 -1.92,-0.04 -0.39,-0.28 -0.43,-0.6 -0.16,-0.96 0.08,-0.16 0.23,-0.32 0.42,-0.48 0.16,-0.16 0.31,-0.24 0.35,-0.2 0.04,0.04 0.04,0.08 0,0.12 -0.04,0 -0.04,0.04 -0.11,0.12 -0.04,0.04 -0.08,0.08 -0.08,0.08 -0.08,0.12 -0.08,0.24 -0.04,0.4 0.08,0.12 0.19,0.24 0.35,0.36 0.34,0.28 0.8,0.4 1.27,0.36zm-18.46 -4.61l0.23 -0.04c0.16,-0.04 0.27,-0.08 0.39,-0.16 0.07,-0.08 0.11,-0.2 0.11,-0.36 -0.04,-0.2 -0.11,-0.52 -0.31,-1l-0.34 -1.09c0,-0.04 0,-0.04 0.04,-0.12l0.27 -0.44c0.07,-0.12 0.11,-0.16 0.15,-0.16 0.04,-0.04 0.08,0.04 0.15,0.16 0.12,0.2 0.24,0.44 0.39,0.72 0,0 0.04,0.04 0.04,0.08 0,0 -0.04,0.04 -0.04,0.04 -0.04,0 -0.08,0 -0.15,-0.04 -0.04,0 -0.08,0 -0.08,0 0,0.08 0.04,0.16 0.04,0.32 0.04,0.08 0.04,0.17 0.04,0.2l0.11 0.65c0.04,0.44 0.08,0.8 0.08,1.08 -0.04,0.28 -0.08,0.48 -0.16,0.64 -0.11,0.2 -0.19,0.28 -0.31,0.36 -0.11,0.04 -0.26,0.08 -0.42,0.08l-0.03 0 0 0.04c-1.39,0.24 -2.66,0.44 -3.96,0.89l0 -0.05 -0.16 0.08c-0.23,0.09 -0.46,0.12 -0.61,0 -0.2,-0.08 -0.35,-0.28 -0.54,-0.56l-0.04 0.24c-0.04,0.16 -0.08,0.24 -0.12,0.29 -0.03,0 -0.19,0.03 -0.46,0.03 -0.3,0.05 -0.46,0.05 -0.54,0 -0.03,-0.03 -0.07,-0.08 -0.11,-0.12 0,-0.08 -0.04,-0.16 -0.04,-0.32 -0.04,-0.16 -0.04,-0.28 0,-0.4 0.04,-0.12 0.27,-0.44 0.62,-0.92 -0.08,-0.16 -0.16,-0.28 -0.16,-0.32 -0.04,-0.04 0,-0.2 0.08,-0.44 0.04,-0.2 0.08,-0.32 0.12,-0.36 0,0 0.11,0.12 0.23,0.36l0.46 0.84c0.19,0.36 0.38,0.6 0.5,0.68 0.11,0.12 0.23,0.12 0.34,0.08l0.12 -0.04 0.04 0c1.34,-0.44 2.65,-0.64 4.03,-0.92zm-20.6 16.2c-0.19,-0.04 -0.31,-0.04 -0.35,-0.08 -0.04,0 -0.15,-0.12 -0.27,-0.28 -0.15,-0.16 -0.19,-0.28 -0.19,-0.32 0,-0.04 0.15,0 0.39,0.04l0.96 0.16c0.38,0.08 0.65,0.12 0.8,0.08 0.43,-0.12 1,-1.84 1.23,-2.32l-0.03 0 0.07 -0.12c0.08,-0.16 0.12,-0.33 0.08,-0.41 -0.04,-0.12 -0.12,-0.24 -0.27,-0.36 -0.15,-0.08 -0.58,-0.32 -1.23,-0.72 -0.27,-0.16 -0.54,-0.28 -0.73,-0.36 -0.12,-0.48 -0.19,-0.76 -0.15,-0.8 0.03,-0.04 0.11,-0.04 0.26,0.04 0.24,0.16 0.62,0.4 1.08,0.72 0.35,0.2 0.62,0.36 0.73,0.44 0.27,0.16 0.5,0.24 0.62,0.24 0.15,0.04 0.27,-0.04 0.34,-0.2l0.12 -0.16c0.15,-0.24 1.73,-2.81 1.84,-2.69l0.08 -0.12c0.08,-0.12 0.15,-0.24 0.15,-0.36 0.04,-0.16 0,-0.28 -0.11,-0.36 -0.15,-0.12 -0.46,-0.32 -0.89,-0.56l-0.92 -0.56c-0.04,0 -0.04,-0.04 -0.04,-0.08l-0.11 -0.52c0,-0.12 -0.04,-0.24 0,-0.24 0.04,-0.04 0.11,-0.04 0.23,0 0.19,0.08 0.42,0.16 0.73,0.28 0.04,0 0.07,0 0.07,0.04 0.04,0 0.04,0.04 0,0.04 0,0.04 -0.03,0.04 -0.11,0.08 -0.04,0.04 -0.04,0.04 -0.08,0.04 0.08,0.08 0.16,0.12 0.27,0.2 0.08,0.08 0.12,0.12 0.16,0.16l0.46 0.4c0.34,0.28 0.57,0.52 0.77,0.76 0.15,0.2 0.27,0.4 0.3,0.6 0.04,0.16 0.04,0.32 -0.03,0.44 -0.04,0.17 -0.16,0.29 -0.27,0.45l-0.04 -0.04 -0.5 0.76c-0.43,0.64 -0.96,1.32 -1.31,1.96 -0.11,0.24 -0.34,0.4 -0.69,0.4 0.19,0.33 0.19,0.61 0,0.93l0 0.04 0 0c-0.31,0.68 -0.58,1.28 -0.88,2l-0.04 -0.04 -0.04 0.08c-0.08,0.24 -0.19,0.44 -0.39,0.52 -0.19,0.08 -0.42,0.08 -0.77,0.04l0.16 0.2c0.12,0.13 0.15,0.21 0.12,0.25 0,0.03 -0.08,0.2 -0.28,0.44 -0.15,0.24 -0.26,0.36 -0.3,0.4 -0.08,0 -0.12,0 -0.19,0 -0.04,0 -0.16,-0.08 -0.27,-0.16 -0.12,-0.08 -0.2,-0.16 -0.27,-0.28 -0.08,-0.08 -0.16,-0.44 -0.27,-1.09z"/>
   <path class="fil2" d="M640.18 280.26c8.82,0 15.97,-7.46 15.97,-16.66 0,-9.19 -7.15,-16.65 -15.97,-16.65 -8.81,0 -15.97,7.46 -15.97,16.65 0,9.2 7.16,16.66 15.97,16.66z"/>
   <path class="fil3" d="M641.58 277c0.3,-0.22 -0.31,-0.53 0.81,-0.53 1.11,-0.21 1.11,-0.74 0.4,-1.27 -0.91,-0.74 -0.91,-2.33 -1.21,-2.75 -0.1,-0.21 -0.31,-0.21 -0.51,-0.11 -0.1,0.53 -0.2,1.27 -0.1,1.8 0.2,1.06 -0.1,1.8 -0.1,2.75 -0.21,0.42 0.3,1.06 0.71,0.11zm3.44 -17.99l3.25 -2.22 0.4 0.22 0.61 -0.32c0.1,0 -0.4,-0.11 -0.3,-0.32 0.3,-0.42 0.4,-0.74 0.4,-0.74 0.51,-1.16 -0.1,-1.9 -1.01,-2.12 -0.81,-0.1 -1.42,0.85 -1.42,1.49 0,0.42 0.41,0.73 0.61,1.26l-2.13 1.59c0,0.21 -0.41,0.64 -0.41,1.16zm3.35 -3.49c-0.71,-0.42 -0.71,-1.05 0,-1.26 0.61,0 0.51,0.95 0,1.26zm-12.98 1.91l8.11 -3.92 0.81 -2.01 -8.72 4.23 -0.2 1.7zm7.4 0.74c0.41,-0.21 0.51,-0.74 0.61,-1.16 0.1,0.31 0.81,0.31 1.42,0.21 1.22,-0.53 0.81,-1.8 0,-2.33 -0.41,-0.53 -0.61,-0.53 -0.61,0.11 0,0.1 0.2,0.63 0.1,0.95 -0.81,0.74 -1.11,-0.32 -1.42,-0.32 -0.1,-0.11 -0.2,-0.11 -0.3,0.1 0.1,1.06 -0.71,1.7 -1.01,0.96 -0.71,-1.59 -1.12,0.1 -0.51,1.16 0.2,0.32 1.12,0.32 1.72,0.32zm6.49 1.9c1.22,-0.32 1.12,-1.69 0,-1.69 -0.4,0.21 -0.51,0.63 0,1.69zm-8.01 10.58c0.31,0.32 2.23,6.13 7.4,4.13 -0.61,-0.75 -1.01,-0.85 -1.01,-2.12 -0.71,0 -2.23,0 -3.35,-1.38 0.71,-3.7 5.78,-4.76 8.92,-5.39 0,-0.64 0.61,-2.12 0.51,-2.33 -1.52,0.53 -6.38,2.22 -8.31,0.64 0,-0.64 2.84,-1.48 3.45,-1.59 0.4,0 1.21,0.95 2.02,0.95 0,-0.42 0.81,-0.53 0.61,-0.84 0,-0.21 -1.22,-0.21 -0.71,-1.17 0.2,-0.1 0.81,-0.31 1.12,-0.63 0.61,-0.74 0.3,-1.91 -0.21,-2.54 -1.62,-1.37 -3.44,-1.06 -3.95,0.11 -0.1,0.52 -0.1,1.58 0.1,2.32 -0.91,0.53 -4.05,1.8 -5.07,2.54 -0.91,0.85 -0.91,1.69 0.51,3.07 0.2,-0.21 1.11,-0.53 1.72,0.1 -0.71,1.06 -1.31,2.12 -1.52,3.28 -0.1,0 -0.2,0 -0.3,0 -1.01,-2.22 -2.03,-4.86 -2.13,-6.77 0.41,-0.31 1.62,-1.48 0.81,-4.02 0,0 -0.3,0.32 -0.4,0.32 0,0.53 -0.41,2.12 -1.02,2.12 0,-0.74 -0.91,-4.44 -1.21,-4.55 -0.31,0 -0.41,0 -0.51,0 -0.31,1.06 -0.81,1.59 -0.81,2.85 0.2,0.32 0.91,1.7 0.91,2.33 -1.01,0 -2.84,0.53 -2.84,-1.16 0.1,-1.27 0,-1.91 -1.42,-1.27 -2.23,0.63 -2.94,5.08 -3.55,5.6 -2.23,1.7 -2.02,-4.75 -2.02,-5.18 0,-0.32 -0.21,-0.32 -0.51,0 -0.51,1.38 -0.61,2.54 -0.71,4.13 0,1.58 0.51,3.38 1.92,3.91 -0.7,2.01 -0.1,4.23 1.42,4.87 3.45,2.11 8.62,-3.71 9.33,-5.19 0.2,0.11 0.71,2.12 0.81,2.86zm-8.62 0.32c4.36,-0.21 7.1,-4.02 6.9,-7.3 -0.71,0.21 -0.81,0.53 -1.32,0.53 -1.42,0 -2.74,-0.11 -3.14,-1.48 -1.93,-1.48 -2.33,2.85 -2.44,3.91 -0.3,0.95 -1.31,2.01 -1.62,1.48 -0.4,2.01 0.31,2.43 1.62,2.86zm16.73 1.27c0.91,0.42 2.64,-0.53 2.23,-2.23 -0.2,0.64 -1.11,1.17 -1.52,0.96 -0.71,-0.85 0.51,-1.91 0.51,-2.86 -0.81,0 -1.62,0.11 -1.93,0.53l-0.81 0.85c0.41,0.1 1.32,-0.11 1.42,-0.11 -0.3,0.63 -0.61,2.54 0.1,2.86zm-13.89 -5.19l-1.72 -0.42 -0.51 2.01 1.93 0.42 0.3 -2.01zm0 -0.1l1.83 0.21 0.51 -1.59 -2.13 -0.53 -0.21 1.91zm-3.75 -10.16l-1.82 -0.1 -0.21 1.48 1.83 0.32 0.2 -1.7zm0.1 -0.1l1.93 0.21 0.2 -1.69 -1.72 -0.21 -0.41 1.69zm2.94 -2.65l5.68 -2.54 0.61 -1.79 -6.08 3.06 -0.21 1.27zm-0.2 21.26l5.47 -2.64 0.61 -1.59 -6.08 2.96 0 1.27z"/>
   <path class="fil4" d="M575.32 225.89c-0.35,0.85 -1.56,3.36 -1.95,4.24 -1.46,3.31 -0.59,3.4 -3.16,3.9 -0.63,-5.23 2.46,-7.52 3.88,-11.68 0.99,-2.91 1.38,-6.68 0.6,-9.94l-1.52 -2.94c-3.83,7.23 -8.74,8.69 -6.11,19.63 1.72,7.16 2.45,13.17 0.44,20.39 -0.22,0.78 -0.14,0.74 -0.56,1.39 -0.89,1.38 0.56,0.19 -1.01,0.95 -2.16,-3.49 0.12,-7.62 0.33,-11.69 0.24,-4.31 -0.95,-8.44 -1.64,-12.14 -0.15,0.11 -0.37,0.09 -0.44,0.34l-2.79 3.96c-2.56,5.59 -3.36,12.37 -0.88,18.37 1.43,3.48 11.39,17.68 7.7,21.77 -2.26,-2.71 -2.03,-7.34 -3.68,-10.58 -1.11,-2.17 -1.91,-2.28 -3.4,-4.09 -1.81,-2.2 -1.39,-2.89 -2.54,-4.88 -7.58,20.24 12.45,18.55 16.04,33.46l-0.05 2.64c-3.07,-1.22 -3.79,-6.62 -5.94,-9.02 -1.38,-1.55 -7.09,-6.51 -8.59,-7.46 -1.15,12.67 4.81,13.91 13.02,19.55 7.34,5.05 9.71,10.53 14.81,17.35 -5.05,0.44 -7.67,-9.04 -15.48,-14.21 -2.64,-1.74 -4.04,-3.26 -5.96,-4.66 3.55,23.76 24.16,19.33 29.46,28.27 -5.74,-0.11 -8.62,-6.13 -16.2,-4.57 1.25,1.96 4.26,5.19 6.09,7.01 2.73,2.72 5.65,4.08 10.79,4.4 6.69,0.4 14.5,1.31 20.46,5.02l2.43 2.35c-4.75,-0.51 -10.56,-2.62 -21.14,-3.92l3.02 3.63c13.28,11.38 19.49,-0.7 38.91,12.84 2.46,1.3 3.43,2.57 5.68,4.07 0.84,0.55 2.1,1.51 2.99,2.07 1.91,1.13 3.9,1.53 5.29,0.25 3.12,-3.03 -1.2,-5.72 -4.49,-6.88 -1.81,-0.65 -3.43,-1.13 -4.57,-1.89l-6.02 -3.39c-5.56,-3.21 -10.15,-9.49 -13.12,-14.9 -2.87,-5.24 -9.95,-9.18 -17.26,-11.3 1.52,3.11 3.01,7.97 5.15,10.24 2.28,2.43 7.98,3.97 9.09,6.48 -6.56,1.08 -14.41,-8.65 -15.73,-13.49 -3.12,-11.45 -7.08,-9.96 -11.27,-17.4 -0.38,4.53 -1.08,9.03 0.82,12.99 2.19,4.56 5.98,4.9 7.02,9.32 -15.76,-6.6 -10.04,-21.92 -11.72,-26.92 -0.78,-2.3 -2.81,-5.65 -4.15,-8.38 -4.19,4.1 -3.21,8.92 -2.27,14.95 -9.48,-8.53 3.4,-7.94 -2.13,-33.19 -0.81,1.16 -1.69,3.04 -2.36,4.12 -0.95,1.51 -2.08,2.49 -2.87,4.13 -2.34,4.85 0.56,7.29 -0.48,12.07 -3.45,-5.02 -4.2,-11.86 -0.48,-16.39 3.5,-4.26 3.91,-11.74 4.61,-18.29 -11.11,7.09 -6.85,12.06 -9.94,18.31 -4.43,-5.96 0.62,-13.89 3.7,-16.97 4.13,-4.14 7.16,-7.86 8.77,-15.64 -2.16,1.13 -7.46,3.45 -9.47,4.96 -3.79,2.85 -2.67,7.58 -5.17,9.92 -1.49,-2.65 -0.19,-8.19 1.25,-10.22 1.84,-2.57 4.7,-3.52 7.84,-4.69 5.98,-2.23 10.42,-5.86 11.88,-13.02 -1.41,0.6 -2.6,1.45 -4.41,2.03 -5.55,1.78 -9.91,2.3 -12.58,8.18 0.2,-4.99 3.3,-6.8 4.63,-7.61 2.65,-1.28 6.84,-2.38 8.14,-2.58 1.62,-0.26 7.41,-4.01 8.46,-6.28 1.04,-2.27 1.01,-3.08 1.01,-3.08 0,0 -1.34,1.68 -2.78,1.65 -4.46,-0.08 -7.97,0.76 -10.04,4.09 -1.86,3 -4.41,3.38 -4.41,3.38 0,0 2.59,-3.81 3.81,-5.32 1.23,-1.52 2.52,-2.09 5.4,-3.77 2.88,-1.69 9.31,-2.36 11.23,-2.69 1.92,-0.33 5.52,-4.06 5.9,-6.92 0.38,-2.85 -0.06,-3.03 -0.06,-3.03 0,0 -1.24,1.74 -3.04,2.74 -1.81,1 -4.03,0.3 -5.31,0.92 -1.27,0.63 -2.95,1.8 -4.61,3.58 -1.66,1.77 -3.89,1.95 -3.89,1.95 0,0 2.73,-4.17 3.96,-5.25 1.22,-1.07 4.31,-0.99 8.59,-3.02 4.29,-2.03 4.69,-6.05 7.87,-9.1 3.18,-3.06 4.5,-2.36 4.5,-2.36 0,0 -0.9,-0.16 -2.66,-0.73 -1.76,-0.57 -8.57,-0.33 -10.75,1.15 -2.17,1.47 -3.35,2.61 -5.3,8.05 -1.95,5.45 -3.78,5.9 -3.78,5.9l-3.7 3.06 0.12 -0.52c0.66,-2.93 2.43,-3.65 4.3,-6.37 1.88,-2.71 2,-4.84 2.33,-7.57 0.33,-2.74 1.79,-2.82 1.79,-2.82 0,0 -4.84,0.81 -6.41,2.65 -1.56,1.84 -2.75,2.95 -3.36,7.85 -0.61,4.91 -1.66,7.91 -3.08,11.28 -1.42,3.36 -4.31,9.47 -4.31,9.47 0,0 -0.16,0.08 0.06,-2.2 0.21,-2.29 0.14,-3.98 1.8,-6.52 1.67,-2.53 2.45,-4.3 3.15,-8.26 0.7,-3.96 0.96,-7.15 1.27,-8.48 -0.8,0.51 -1.04,0.53 -3.42,2.74 -2.38,2.22 -3.4,4.47 -3.93,6.63 -0.52,2.15 -1.1,6.64 -1.01,11.67 0.09,5.03 -0.95,4.56 -1.01,4.91z"/>
   <path class="fil3" d="M673.07 207.17c-5.33,0.73 -6.91,-5.01 -3.18,-6.58 -3.51,-3.88 1.9,-8.13 5.29,-6 -0.03,-3.59 4.97,-4.02 6.88,-0.28 1.25,2.14 -0.83,2.54 0.68,4.5 -3.2,2.91 -6.69,5.81 -9.67,8.36z"/>
   <path class="fil5" d="M686.06 202.75c-0.21,-2.33 -0.38,-4.98 -2.81,-7.18 -5.44,-2.73 0.13,4.66 -4.69,3.84 -2.87,-0.78 -3.78,2.38 -3.94,4.32 1.38,2.9 -5.38,1.04 -3.06,4.87 0.98,1.12 4.46,2.62 8.27,2.12 3.12,-0.59 6.46,-4.94 6.23,-7.97z"/>
   <path class="fil3" d="M680.87 214.48c-5.33,0.73 -6.91,-5 -3.18,-6.57 -3.5,-3.88 1.9,-8.12 5.29,-6 -0.04,-3.58 4.95,-4.01 6.87,-0.27 1.24,2.14 -0.83,2.53 0.68,4.49 -3.2,2.91 -6.69,5.81 -9.66,8.35z"/>
   <path class="fil5" d="M693.84 210.07c-0.21,-2.33 -0.38,-4.98 -2.8,-7.17 -5.44,-2.73 0.12,4.65 -4.69,3.83 -2.87,-0.78 -3.78,2.38 -3.93,4.32 1.38,2.89 -5.38,1.03 -3.06,4.86 0.97,1.12 4.45,2.61 8.26,2.12 3.11,-0.59 6.45,-4.94 6.22,-7.96z"/>
   <path class="fil3" d="M688.44 223.16c-5.8,0.36 -7.04,-6.04 -2.9,-7.45 -3.46,-4.53 2.7,-8.73 6.18,-6.13 0.25,-3.92 5.65,-3.99 7.42,0.25 1.17,2.44 -1.1,2.7 0.37,4.97 -3.68,2.93 -7.67,5.81 -11.07,8.36z"/>
   <path class="fil5" d="M702.76 219.38c-0.04,-2.57 0,-5.48 -2.44,-8.08 -5.64,-3.42 -0.24,5.1 -5.36,3.82 -3.02,-1.08 -4.26,2.3 -4.58,4.4 1.25,3.28 -5.87,0.71 -3.68,5.08 0.96,1.3 4.58,3.22 8.73,2.98 3.39,-0.39 7.34,-4.88 7.33,-8.2z"/>
   <path class="fil3" d="M696.3 233.09c-5.5,-0.3 -6.18,-6.8 -2.24,-7.6 -2.84,-5.05 3.37,-8.47 6.51,-5.65 0.6,-3.81 5.71,-3.26 6.98,1.1 0.98,2.41 -1.29,2.52 -0.01,5.01 -3.75,2.45 -7.69,4.92 -11.24,7.14z"/>
   <path class="fil5" d="M710.18 230.6c0.11,-2.62 0.51,-5.37 -1.65,-8.29 -5.01,-4 -0.6,5.06 -5.42,3.34 -2.75,-1.4 -4.23,1.98 -4.73,3.8 0.98,3.45 -5.61,0.23 -3.85,4.65 0.88,1.48 4.03,3.68 8.06,3.81 3.24,0 7.39,-3.95 7.59,-7.31z"/>
   <path class="fil3" d="M700.2 244.22c-4.99,-1.79 -3.83,-8.27 0.02,-8.03 -1.33,-5.66 5.19,-7.16 7.4,-3.55 1.4,-3.54 6.02,-1.51 5.99,3.09 0.3,2.74 -1.61,2.2 -1.19,4.87 -4.08,1.2 -8.39,2.57 -12.22,3.62z"/>
   <path class="fil5" d="M713.68 245.81c0.81,-2.49 1.74,-5.06 0.45,-8.46 -3.47,-5.4 -1.93,4.7 -5.72,1.47 -2.3,-1.92 -4.45,0.8 -5.45,2.6 0.06,3.56 -5.11,-1.7 -4.71,3.43 0.34,1.57 2.78,4.7 6.35,5.95 3.08,0.92 7.98,-1.81 9.08,-4.99z"/>
   <path class="fil3" d="M703.98 257.68c-4.51,-3.02 -1.98,-9.48 1.62,-8.24 -0.09,-6.23 6.65,-6.18 8.02,-1.97 2.29,-3.31 6.49,-0.33 5.48,4.48 -0.32,2.87 -2.07,1.86 -2.21,4.81 -4.41,0.3 -8.95,0.64 -12.91,0.92z"/>
   <path class="fil5" d="M717.08 262.18c1.21,-2.29 2.65,-4.82 2.14,-8.59 -2.35,-6.28 -2.9,4.45 -5.91,0.25 -1.84,-2.51 -4.52,-0.12 -5.94,1.34 -0.68,3.77 -4.75,-2.79 -5.34,2.48 0.01,1.82 1.69,5.46 5.06,7.54 2.82,1.68 8.2,-0.05 9.99,-3.02z"/>
   <path class="fil3" d="M704.06 271.15c-3.72,-4.37 0.18,-10.38 3.62,-8.12 1.47,-6.39 7.93,-4.72 8.34,0.12 3.03,-2.88 6.46,1.36 4.29,6.14 -1.02,2.85 -2.6,1.32 -3.47,4.3 -4.31,-0.81 -8.76,-1.75 -12.78,-2.44z"/>
   <path class="fil5" d="M715.67 279.5c1.87,-2.01 4.04,-4.2 4.34,-8.2 -0.69,-7.1 -3.89,3.88 -6.03,-1.25 -1.14,-3.24 -4.31,-1.42 -6.04,-0.18 -1.59,3.5 -4.01,-4.19 -5.75,1 -0.44,1.88 0.26,6.23 3.12,9.16 2.3,2.52 7.9,2.14 10.36,-0.53z"/>
   <path class="fil3" d="M701.38 285.18c-2.89,-5.18 2.02,-10.51 4.9,-7.51 2.6,-6.08 8.66,-3.16 8.12,1.91 3.48,-2.38 6.13,2.61 3.14,6.93 -1.51,2.62 -2.74,0.76 -4.13,3.55 -4.16,-1.59 -8.29,-3.34 -12.03,-4.88z"/>
   <path class="fil5" d="M711.14 295.86c2.18,-1.6 4.67,-3.33 5.71,-7.25 0.53,-7.27 -4.47,3.04 -5.7,-2.56 -0.48,-3.49 -4.01,-2.36 -5.79,-1.33 -2.19,3.17 -3.21,-5.06 -6,-0.25 -0.63,1.79 -0.8,6.45 1.54,10 1.76,2.86 7.36,3.69 10.24,1.39z"/>
   <path class="fil3" d="M695.17 298.19c-1.34,-5.99 4.71,-9.91 6.6,-6.08 4.1,-5.35 8.99,-0.65 7.15,4.2 3.94,-1.44 5.22,4.34 1.23,7.84 -2.1,2.14 -2.75,-0.07 -4.86,2.4 -3.46,-2.83 -6.85,-5.79 -10.12,-8.36z"/>
   <path class="fil5" d="M701.84 311.51c2.46,-0.92 5.3,-2.02 7.31,-5.58 2.27,-7.06 -5.04,1.8 -4.84,-4.16 0.47,-3.59 -3.19,-3.39 -5.06,-3.05 -2.94,2.6 -1.85,-5.89 -5.59,-1.93 -1.25,1.66 -2.44,6.12 -1.07,10.4 0.89,3.35 5.96,5.72 9.25,4.32z"/>
   <path class="fil3" d="M686.73 310.1c-0.03,-6.22 6.66,-8.5 7.75,-4.26 5.08,-4.29 8.69,1.5 5.88,5.88 4.1,-0.39 4.13,5.61 -0.51,8.02 -2.61,1.67 -2.69,-0.46 -5.19,1.3 -2.72,-3.78 -5.43,-7.56 -7.93,-10.94z"/>
   <path class="fil5" d="M690.19 325.03c2.56,-0.27 5.52,-0.82 8.17,-3.89 3.87,-6.37 -5.22,0.45 -3.49,-5.28 1,-3.47 -2.42,-4.14 -4.48,-4.27 -3.32,1.89 -0.14,-6.3 -4.96,-3.23 -1.39,1.28 -3.69,5.48 -3.32,9.93 0.14,3.62 4.6,7.26 8.08,6.74z"/>
   <path class="fil3" d="M677.83 317.86c1.97,-6.06 8.93,-6.01 8.49,-1.63 6.2,-2.34 7.62,4.57 3.72,7.98 3.98,0.98 1.95,6.91 -3.05,7.62 -2.84,0.84 -2.3,-1.39 -5.27,-0.47 -1.26,-4.64 -2.64,-9.2 -3.89,-13.5z"/>
   <path class="fil5" d="M676.56 333.71c2.54,0.55 5.29,1.15 8.82,-1 5.57,-4.83 -5.03,-1.31 -1.67,-6.41 2.02,-3.03 -1.07,-4.93 -2.71,-5.73 -3.76,0.75 1.7,-6.24 -3.6,-4.82 -1.87,0.72 -5.13,4.04 -6.15,8.63 -1.04,3.58 1.85,8.69 5.31,9.33z"/>
   <path class="fil3" d="M665.58 323.37c3.04,-5.79 9.84,-4.39 8.98,0.24 6.14,-1.25 6.61,6.12 2.1,8.75 3.65,1.99 0.69,7.63 -4.25,7.52 -3.29,0.16 -2,-2.09 -5.22,-1.7 -0.57,-5.01 -1.12,-10.02 -1.61,-14.81z"/>
   <path class="fil5" d="M654.53 340.19c1.13,-0.24 4.33,-0.12 5.55,1.48 2.68,1.17 5.52,2.49 9.75,0.87 6.9,-4.31 -5.19,-2.68 -0.66,-7.67 2.83,-2.87 -0.1,-5.69 -1.82,-6.92 -4.16,-0.07 2.99,-6.74 -2.95,-6.35 -2.11,0.64 -6.4,3.61 -8.2,8.59 -2.53,7.6 -13.02,9.35 -21.48,15.84 -8.05,3.36 -2.01,9.59 3.08,6.11 5.31,-2.69 11.19,-10.86 16.73,-11.95z"/>
  </g>
  <rect class="fil6" x="489.4" y="99.39" width="301.21" height="301.21" rx="34.92" ry="34.28"/>
 </g>
</svg>